<?xml version="1.0" encoding="UTF-8"?>
<svg version="1.1" xmlns="http://www.w3.org/2000/svg" width="1024" height="962">
<path d="M0 0 C1.08998323 -0.00275974 2.17996647 -0.00551949 3.3029795 -0.00836286 C4.49723411 -0.00630754 5.69148873 -0.00425222 6.92193288 -0.00213462 C8.19833908 -0.00388766 9.47474529 -0.0056407 10.78983048 -0.00744686 C14.34637009 -0.01218484 17.90288416 -0.01067261 21.45942505 -0.00816908 C25.32357841 -0.00653882 29.18772624 -0.0106745 33.05187786 -0.01407826 C39.82890863 -0.01923819 46.60593225 -0.02064843 53.38296479 -0.01962215 C63.46064069 -0.01809973 73.53830866 -0.02225338 83.61598302 -0.02749677 C102.66030202 -0.03717836 121.70461833 -0.03998131 140.74893949 -0.04055383 C155.45317812 -0.04101299 170.1574157 -0.04306933 184.86165398 -0.04625446 C189.09092625 -0.04715197 193.32019852 -0.04804178 197.54947078 -0.04892933 C198.60081488 -0.04915038 199.65215897 -0.04937143 200.73536198 -0.04959918 C230.31620096 -0.05575519 259.89703957 -0.05969956 289.47787923 -0.0592559 C290.59362403 -0.05924032 291.70936884 -0.05922474 292.8589241 -0.05920869 C298.51426442 -0.05912558 304.16960475 -0.05902654 309.82494507 -0.05892398 C310.9481603 -0.05890404 312.07137553 -0.05888409 313.22862759 -0.05886354 C315.50004326 -0.05882311 317.77145894 -0.05878131 320.04287461 -0.05873815 C355.38896408 -0.05812528 390.73504396 -0.06563334 426.08113068 -0.07931072 C465.77186761 -0.09466286 505.46259823 -0.10327747 545.15333831 -0.10234749 C549.38355364 -0.10227286 553.61376897 -0.10222415 557.84398431 -0.10219318 C558.88560788 -0.10218152 559.92723146 -0.10216987 561.00041939 -0.10215786 C577.78112642 -0.10212706 594.56182514 -0.10851975 611.34252969 -0.11712544 C628.20006366 -0.12559188 645.05758543 -0.1265998 661.91512034 -0.12001612 C671.9359494 -0.11631375 681.95674149 -0.11817327 691.97756665 -0.12795846 C698.66720386 -0.13394009 705.35681417 -0.13268331 712.04645013 -0.12548796 C715.86063673 -0.12159105 719.67475158 -0.12087493 723.48893324 -0.12894531 C727.59522198 -0.13755787 731.7013401 -0.1307484 735.80762929 -0.12238914 C736.9948604 -0.12735732 738.18209152 -0.1323255 739.40529934 -0.13744423 C745.52475473 -0.11095444 750.66493428 0.525972 756.55354279 2.12649983 C758.58570645 1.86689219 758.58570645 1.86689219 760.49104279 1.37649983 C767.97549677 0.17316889 775.73211595 4.42455694 782.55354279 7.12649983 C782.55354279 7.78649983 782.55354279 8.44649983 782.55354279 9.12649983 C783.19291779 9.37399983 783.83229279 9.62149983 784.49104279 9.87649983 C789.64340331 11.97950412 789.64340331 11.97950412 792.05354279 13.00149983 C792.78573029 13.30829671 793.51791779 13.61509358 794.27229279 13.93118733 C797.01110917 15.36625208 799.18182942 17.14520697 801.55354279 19.12649983 C802.38112092 19.77747639 803.20869904 20.42845296 804.06135529 21.09915608 C815.81988251 30.48842781 826.93896073 41.02007085 834.55354279 54.12649983 C835.18131623 55.18224202 835.80908967 56.23798421 836.45588654 57.32571858 C837.13492584 58.48809726 837.81330027 59.65086457 838.49104279 60.81399983 C838.82555451 61.37538655 839.16006623 61.93677327 839.50471467 62.51517171 C844.59327962 71.29025 847.2932972 80.27491212 849.24104279 90.18899983 C849.55911896 91.72524007 849.55911896 91.72524007 849.88362092 93.29251546 C851.882964 103.16308932 852.70192857 112.6222697 852.68497056 122.69134778 C852.68804951 124.40279941 852.68804951 124.40279941 852.69119066 126.14882582 C852.69684985 129.97610134 852.69540473 133.80334075 852.69398469 137.6306197 C852.69601997 140.40083794 852.6995436 143.17105385 852.70298809 145.94127065 C852.71055287 152.75895242 852.71276037 159.57662636 852.71331714 166.39431189 C852.7142323 174.5624268 852.72090435 182.7305345 852.72766397 190.8986463 C852.74371111 210.63950954 852.74962587 230.380372 852.75441272 250.12124059 C852.75675004 259.46367364 852.76035285 268.80610609 852.76410809 278.14853867 C852.77694271 310.14107913 852.78766177 342.13361925 852.79111069 374.12616223 C852.79133233 376.13384567 852.79155411 378.14152911 852.79177605 380.14921255 C852.79199669 382.1616907 852.79221717 384.17416885 852.79243749 386.186647 C852.79288004 390.22388961 852.79332716 394.26113222 852.79377717 398.29837483 C852.79388656 399.29937357 852.79399595 400.3003723 852.79410866 401.33170433 C852.79773833 433.78047912 852.81365546 466.22923157 852.83696753 498.6779978 C852.86158061 533.00055731 852.87528423 567.32310404 852.87647861 601.64567262 C852.87665006 605.41571119 852.87686549 609.18574975 852.87711304 612.95578831 C852.87716881 613.88404905 852.87722458 614.81230978 852.87728204 615.76869963 C852.87843122 630.68735478 852.88944192 645.60598694 852.9040001 660.52463434 C852.91838843 675.52905166 852.92158891 690.5334396 852.91356012 705.53786193 C852.90911482 714.44330647 852.91292029 723.34865597 852.92879863 732.25408797 C852.93858966 738.21413764 852.93733127 744.17412115 852.9273624 750.1341703 C852.92199984 753.52263093 852.92285094 756.91076283 852.93387112 760.29923122 C852.99970331 781.91886922 852.18295711 803.32998817 842.55354279 823.12649983 C840.90354279 822.79649983 839.25354279 822.46649983 837.55354279 822.12649983 C837.30475373 822.98114827 837.05596467 823.83579671 836.79963654 824.71634358 C835.46887251 828.35821506 833.7225879 831.46174703 831.61604279 834.68899983 C831.22416779 835.29252278 830.83229279 835.89604573 830.42854279 836.51785725 C811.01849021 865.71279724 782.57215825 884.89689611 748.42854279 892.36478108 C742.46676203 893.53670371 736.75544745 894.25132549 730.67583627 894.26516503 C730.01722035 894.26800725 729.35860444 894.27084947 728.68003047 894.27377781 C726.481249 894.28207485 724.28252056 894.28338916 722.08372468 894.28471822 C720.48743264 894.28928736 718.89114178 894.29428791 717.29485232 894.29968178 C712.91305038 894.31323925 708.53125619 894.32067482 704.1494388 894.32710844 C699.41919157 894.3351261 694.68896036 894.3488221 689.95872468 894.36182088 C680.68215462 894.38642805 671.40558053 894.40583436 662.12899508 894.42357362 C651.28435779 894.44454473 640.43973592 894.47099695 629.59511159 894.49774509 C610.19080095 894.54545002 590.78648298 894.58867887 571.38215607 894.62918538 C552.65493606 894.66828654 533.92772349 894.70970813 515.20051545 894.75418538 C514.05318301 894.75690965 512.90585057 894.75963392 511.72375049 894.76244075 C507.10851797 894.77340735 502.49328549 894.78438639 497.87805305 894.79538289 C400.93901222 895.02619247 400.93901222 895.02619247 358.00476414 895.0994581 C349.00185712 895.11504288 339.99898759 895.13528846 330.99610692 895.16207886 C326.25911623 895.17547282 321.52212421 895.18511913 316.78512233 895.19354683 C314.72034299 895.19808491 312.65556653 895.20433771 310.59079832 895.21249753 C307.88495589 895.22305852 305.17917174 895.22767586 302.47331208 895.23061055 C301.32941282 895.23747555 301.32941282 895.23747555 300.16240448 895.24447924 C296.81611288 895.24202029 293.75204741 895.17528706 290.55354279 894.12649983 C290.22354279 895.44649983 289.89354279 896.76649983 289.55354279 898.12649983 C230.91639085 899.24739553 172.30306131 899.10560209 113.65851134 898.75314432 C101.39114861 898.67970982 89.12374488 898.61466549 76.85633296 898.55006582 C51.75535026 898.41771035 26.65443102 898.27564004 1.55354279 898.12649983 C1.55354279 897.46649983 1.55354279 896.80649983 1.55354279 896.12649983 C0.39467561 896.15743733 -0.76419158 896.18837483 -1.95817596 896.22024983 C-6.18308624 896.21282957 -10.15550073 895.60722494 -14.25895721 894.62649983 C-14.9832492 894.45344319 -15.70754119 894.28038655 -16.45378143 894.10208577 C-22.18307551 892.63579773 -27.61979731 890.65877179 -33.07145721 888.37649983 C-33.78535613 888.07808186 -34.49925506 887.77966389 -35.23478729 887.47220296 C-37.66668657 886.41077375 -40.05362594 885.27336881 -42.44645721 884.12649983 C-43.55529266 883.62876057 -44.66412811 883.13102132 -45.80656463 882.61819905 C-56.1093634 877.76357802 -63.61083239 870.95699894 -71.49308807 862.82767171 C-73.51861821 860.74154983 -75.5724434 858.68679045 -77.63200408 856.63431233 C-86.10123048 848.10253483 -92.98663627 840.06908901 -97.07145721 828.56399983 C-98.78143976 823.88230002 -100.629741 819.34472132 -102.74723846 814.83353108 C-103.44645721 813.12649983 -103.44645721 813.12649983 -103.44645721 811.12649983 C-102.12645721 811.12649983 -100.80645721 811.12649983 -99.44645721 811.12649983 C-99.70040252 810.38528889 -99.95434783 809.64407796 -100.21598846 808.88040608 C-105.12969249 793.84483981 -106.89933269 779.33408151 -106.80722076 763.59291524 C-106.80853271 761.89532328 -106.81116627 760.19773193 -106.81498826 758.50014377 C-106.82162864 753.88663068 -106.80979064 749.27333047 -106.79465407 744.65984446 C-106.78160375 739.66555048 -106.78608948 734.67126689 -106.78836089 729.67696065 C-106.78992798 721.04099601 -106.78057808 712.40509978 -106.76364738 703.76915234 C-106.73918499 691.28329182 -106.73144472 678.79746411 -106.7276834 666.31158222 C-106.72113024 646.05024372 -106.70119997 625.78894163 -106.67277557 605.52762288 C-106.64520555 585.85477316 -106.62398639 566.18193335 -106.61125213 546.50906819 C-106.61046396 545.29484029 -106.60967579 544.0806124 -106.60886373 542.82958972 C-106.6049484 536.73768949 -106.60115733 530.6457892 -106.59742802 524.55388886 C-106.56636748 474.07806737 -106.51356271 423.60228539 -106.44645721 373.12649983 C-107.10645721 373.12649983 -107.76645721 373.12649983 -108.44645721 373.12649983 C-108.44645721 371.14649983 -108.44645721 369.16649983 -108.44645721 367.12649983 C-107.78645721 367.12649983 -107.12645721 367.12649983 -106.44645721 367.12649983 C-106.447379 365.91780264 -106.44830079 364.70910544 -106.44925052 363.46378106 C-106.47098724 334.66304626 -106.48743695 305.8623116 -106.49752254 277.06157047 C-106.49877299 273.50370511 -106.50006734 269.94583977 -106.50138885 266.38797444 C-106.50165116 265.67977527 -106.50191347 264.9715761 -106.50218373 264.24191635 C-106.50651514 252.82921726 -106.51438855 241.41652329 -106.52361 230.00382722 C-106.53301728 218.26174796 -106.53852767 206.51967136 -106.5405457 194.77758849 C-106.54178538 188.19558026 -106.54485197 181.61358149 -106.55218726 175.03157681 C-106.55905727 168.81575926 -106.56105223 162.59995784 -106.55956489 156.38413686 C-106.55983635 154.12254373 -106.56177552 151.86094997 -106.56566268 149.59936017 C-106.58464847 137.96653979 -106.47097648 126.34546123 -106.07998687 114.71852559 C-106.05166497 113.70744774 -106.02334306 112.69636989 -105.99416292 111.65465331 C-105.62266745 102.04240693 -103.51322766 93.2102123 -100.44645721 84.12649983 C-100.05200408 82.94958577 -99.65755096 81.77267171 -99.25114471 80.56009358 C-98.08757087 77.35833909 -96.81384295 74.24633972 -95.44645721 71.12649983 C-94.95661346 69.99985921 -94.46676971 68.87321858 -93.96208221 67.71243733 C-81.59840158 41.15996132 -56.14680971 17.39306806 -28.76530486 7.12064046 C-8.8124605 0.00273772 -8.8124605 0.00273772 0 0 Z M533.82307404 176.32962483 C527.17651062 184.52057046 524.4405707 191.82141954 524.40878266 202.28206319 C524.40525582 202.99137874 524.40172897 203.70069429 524.39809525 204.43150425 C524.38744267 206.80209215 524.38373338 209.17263981 524.37995881 211.54324788 C524.37365118 213.24515389 524.36688514 214.94705826 524.35969514 216.64896077 C524.34504424 220.3102751 524.33331213 223.97158314 524.32374734 227.63291425 C524.30828918 233.41814477 524.28434272 239.20332072 524.2588498 244.9885146 C524.18765368 261.43787636 524.12775583 277.88726858 524.07673615 294.33670491 C524.0484756 303.4241653 524.01312378 312.5115706 523.9700824 321.59897327 C523.94325237 327.35460078 523.92538338 333.110166 523.91404516 338.86584383 C523.90494726 342.43870328 523.88759992 346.0114866 523.86786622 349.58430165 C523.86036639 351.24600028 523.8563082 352.90771838 523.8558709 354.56943387 C523.85479503 356.83040423 523.84160826 359.09098345 523.82528657 361.3518874 C523.82105463 362.61931122 523.81682269 363.88673503 523.81246251 365.19256562 C523.55354279 368.12649983 523.55354279 368.12649983 521.55354279 370.12649983 C519.31591767 370.56114644 519.31591767 370.56114644 516.47615021 370.82498616 C514.86830659 370.98100301 514.86830659 370.98100301 513.22798127 371.14017171 C512.05022126 371.2452303 510.87246125 371.35028889 509.65901154 371.45853108 C508.42783601 371.57543294 507.19666047 371.69233479 505.92817658 371.81277913 C503.26056809 372.06476848 500.59289318 372.31347326 497.92448395 372.55658406 C493.73398203 372.93838713 489.54472028 373.33274104 485.35554475 373.72879475 C477.4586557 374.47345929 469.56051511 375.20422758 461.6620633 375.93210286 C452.01932631 376.8211238 442.37712342 377.71585656 432.73533601 378.61511678 C429.27236554 378.93609655 425.80887922 379.25098763 422.34529084 379.56522053 C420.25193108 379.75864384 418.15858703 379.95223719 416.06526154 380.14603108 C415.10785065 380.23118977 414.15043977 380.31634846 413.16401643 380.40408772 C412.30086823 380.48497639 411.43772004 380.56586507 410.54841584 380.64920491 C409.79610184 380.71771153 409.04378785 380.78621815 408.26867646 380.85680073 C406.5253158 380.95849916 406.5253158 380.95849916 405.55354279 382.12649983 C403.45536349 382.34435495 401.35052414 382.49855169 399.24494904 382.62649983 C397.93977326 382.70899983 396.63459748 382.79149983 395.28987092 382.87649983 C393.89861184 382.96011583 392.50733562 383.04344726 391.11604279 383.12649983 C376.96480988 382.98075379 376.96480988 382.98075379 363.55354279 386.12649983 C360.73759426 386.3344468 357.93569168 386.50076817 355.11604279 386.62649983 C349.25089316 386.82782588 349.25089316 386.82782588 343.55354279 388.12649983 C342.22489466 388.31030568 340.89073817 388.45605028 339.5547635 388.57547444 C338.34876748 388.68590077 338.34876748 388.68590077 337.11840791 388.79855794 C336.24751023 388.8745522 335.37661256 388.95054646 334.47932404 389.02884358 C333.57084214 389.11088032 332.66236024 389.19291707 331.72634858 389.27743977 C328.77321513 389.54312797 325.81964759 389.80360864 322.86604279 390.06399983 C320.85023147 390.24448228 318.83444368 390.42522785 316.81867951 390.60623616 C305.34453009 391.63280634 293.86859707 392.64086402 282.3828885 393.53055257 C281.12544831 393.63025349 281.12544831 393.63025349 279.84260529 393.73196858 C278.80160676 393.81160847 278.80160676 393.81160847 277.73957795 393.89285725 C276.0695904 394.07134487 274.40773069 394.32750898 272.75349396 394.61771077 C269.18542205 395.18503066 265.67152673 395.44270667 262.06526154 395.66165608 C261.36262681 395.70463322 260.65999207 395.74761037 259.93606538 395.79188985 C258.45619292 395.8816136 256.97622458 395.96976814 255.49616975 396.05643147 C253.25784277 396.18801224 251.01996287 396.3258289 248.78205842 396.46439046 C244.70701229 396.71263824 240.63123418 396.92622029 236.55354279 397.12649983 C235.0968216 397.20746907 235.0968216 397.20746907 233.6106717 397.29007405 C228.09055243 397.47888202 228.09055243 397.47888202 225.84899777 396.00798863 C223.9515145 393.25212789 224.18005106 391.10394735 224.18173188 387.77658528 C224.17790732 387.12967614 224.17408275 386.482767 224.17014229 385.81625456 C224.16084238 383.64438631 224.17285754 381.47315309 224.18464631 379.30130452 C224.18217884 377.7457344 224.17834098 376.19016594 224.17323273 374.63460225 C224.16488627 371.28205019 224.16570956 367.92966793 224.17341775 364.57711476 C224.18498893 359.27369248 224.17284722 353.97048914 224.15679902 348.66708821 C224.12058093 335.49095425 224.11437284 322.31482502 224.11689728 309.13864583 C224.11860895 298.90547048 224.11146601 288.6724736 224.07691872 278.43934816 C224.06013378 273.17001815 224.06191214 267.90112332 224.07774144 262.63179511 C224.08354668 259.34818364 224.07278301 256.06477755 224.05749482 252.78120297 C224.05377461 251.26188761 224.05685929 249.7425375 224.06736535 248.22325391 C224.24534302 237.49489431 224.24534302 237.49489431 219.55354279 228.12649983 C218.72403107 227.02628499 218.72403107 227.02628499 217.87776154 225.90384358 C211.24887417 218.45227806 205.01941758 211.77503935 194.62132233 210.73209065 C193.17523161 210.70847476 191.72881881 210.70082549 190.2825467 210.70657796 C189.48643479 210.69810841 188.69032288 210.68963887 187.87008637 210.68091267 C185.25659369 210.65764749 182.6436934 210.65651802 180.03010529 210.65774983 C178.20078775 210.65064169 176.37147242 210.64294174 174.54215974 210.63467854 C170.71418527 210.62125762 166.88641696 210.6196541 163.05842561 210.62552327 C158.17042438 210.63141573 153.28341764 210.60083559 148.3956086 210.56040639 C144.6190105 210.53446504 140.8426498 210.53165782 137.06597489 210.53529805 C135.26476387 210.53361268 133.4635412 210.52402669 131.66241807 210.50615376 C118.2537478 210.20097555 118.2537478 210.20097555 106.55354279 216.12649983 C106.01707627 216.55618565 105.48060975 216.98587147 104.92788666 217.42857808 C103.46501635 218.69143367 102.09959059 220.06453932 100.74104279 221.43899983 C99.84772248 222.32200764 98.95440217 223.20501546 98.03401154 224.11478108 C93.13196827 230.06671079 90.94759712 235.44829204 91.05017823 243.23570508 C91.04436447 244.01521501 91.0385507 244.79472495 91.03256077 245.5978564 C91.01799892 248.20178811 91.03182778 250.80477154 91.04560822 253.40869588 C91.04099778 255.29763685 91.03464391 257.18657423 91.02669924 259.07550412 C91.01000223 264.26014179 91.01825412 269.44448491 91.03064412 274.62912363 C91.03969082 280.22297554 91.02572666 285.81677665 91.01472443 291.41061848 C90.99692993 302.36713808 91.00078359 313.32354812 91.012375 324.28007202 C91.02140628 333.18522106 91.02263463 342.09033938 91.01827973 350.99549168 C91.0176668 352.26263598 91.01705387 353.52978028 91.01642236 354.83532289 C91.01514346 357.40947932 91.01384661 359.98363574 91.012532 362.55779214 C91.00144851 386.01297373 91.01294604 409.46808177 91.03390238 432.92325021 C91.05288002 454.32648132 91.05118998 475.72961722 91.03205842 497.13284749 C91.01062951 521.18654371 91.00222644 545.24017495 91.01450747 569.2938841 C91.01578167 571.85921487 91.01703915 574.42454566 91.01827973 576.98987645 C91.01889683 578.25207193 91.01951394 579.51426741 91.02014974 580.81471124 C91.02360289 589.70781673 91.01777492 598.60088843 91.00836152 607.49398869 C90.99713979 618.33382084 91.00018518 629.17353713 91.02148449 640.01335602 C91.03199311 645.543693 91.03611982 651.07383687 91.02288789 656.60417241 C91.01095427 661.66850233 91.01754284 666.73246043 91.03879809 671.7967567 C91.04326006 673.62709688 91.04100703 675.45746858 91.03129494 677.28778844 C90.97627562 688.51973467 91.14138303 698.22347053 98.79573029 707.13040608 C99.99110204 708.33228857 101.20224943 709.51868376 102.42854279 710.68899983 C103.32766389 711.61035725 103.32766389 711.61035725 104.24494904 712.55032796 C107.84556866 716.0845587 110.29219838 717.9253781 115.55354279 718.12649983 C115.55354279 718.78649983 115.55354279 719.44649983 115.55354279 720.12649983 C126.2198448 720.24262394 136.8859951 720.3313318 147.55280179 720.38556069 C152.50648318 720.41159504 157.45973038 720.44687995 162.41316193 720.5036971 C167.19833139 720.55823741 171.98308461 720.58796667 176.76854104 720.60088605 C178.58933085 720.61008654 180.41009926 720.62805294 182.23071069 720.65515012 C195.76912077 721.10842876 195.76912077 721.10842876 207.55354279 715.12649983 C208.15019746 714.63520589 208.74685212 714.14391194 209.36158723 713.6377303 C210.94997109 712.2658394 212.40608924 710.82111205 213.86604279 709.31399983 C214.36426545 708.83124593 214.86248811 708.34849202 215.37580842 707.85110921 C222.92475918 700.2223809 224.06098954 693.07990148 224.07025117 682.74142903 C224.05916117 681.07510594 224.04772069 679.40878515 224.03596467 677.74246663 C224.03815246 675.97277464 224.04215213 674.20308411 224.04782075 672.43339986 C224.05636313 668.63453055 224.05263445 664.83594425 224.0393979 661.03708905 C224.01902815 655.03284804 224.02905134 649.02889119 224.0436551 643.02464741 C224.07037833 630.28773922 224.06367711 617.55092402 224.05354279 604.81399983 C224.04259865 591.04572103 224.03729704 577.27758823 224.0708372 563.50933456 C224.08423595 557.53723804 224.07821676 551.56556764 224.05747193 545.59349638 C224.04851201 541.88618283 224.05593565 538.17903515 224.06788415 534.47173566 C224.07002188 532.74915959 224.06525351 531.02655947 224.05317849 529.3040244 C224.03765455 526.95787518 224.04647995 524.61304946 224.06147736 522.26692647 C224.05996926 520.9527005 224.05846116 519.63847453 224.05690736 518.28442353 C224.55354279 515.12649983 224.55354279 515.12649983 226.43387574 513.21100014 C228.9401811 511.92868133 230.81687049 511.64309872 233.62385529 511.46634358 C235.09338654 511.35902913 235.09338654 511.35902913 236.59260529 511.24954671 C237.61096467 511.18831624 238.62932404 511.12708577 239.67854279 511.06399983 C246.30339163 510.63063861 252.65988797 509.99821275 259.15364045 508.60135335 C263.13527109 507.81353325 267.13772397 507.46678747 271.17854279 507.12649983 C272.5371341 507.00685872 272.5371341 507.00685872 273.9231717 506.88480061 C287.78030084 505.71155301 301.67160217 504.94092796 315.55354279 504.12649983 C315.55354279 503.46649983 315.55354279 502.80649983 315.55354279 502.12649983 C316.61701936 502.17290608 317.68049592 502.21931233 318.77619904 502.26712483 C331.64685628 502.62356437 344.27027853 501.53295335 357.05354279 500.18899983 C357.92777894 500.09759724 358.80201508 500.00619466 359.70274323 499.91202229 C362.22646597 499.64581018 364.74952256 499.37423937 367.27229279 499.09915608 C368.03303605 499.01680211 368.7937793 498.93444813 369.57757539 498.84959859 C372.44067726 498.52853875 375.2648057 498.1868691 378.08625764 497.59695882 C381.47663273 496.95048615 384.87163802 496.79939191 388.31135529 496.62649983 C389.05505372 496.58589436 389.79875214 496.54528889 390.56498688 496.50345296 C392.93600343 496.37439272 395.30723511 496.2500859 397.67854279 496.12649983 C400.78545448 495.96237078 403.89222548 495.79588155 406.99885529 495.62649983 C408.1148108 495.56571248 408.1148108 495.56571248 409.25331086 495.5036971 C415.03354656 495.17855783 420.79431531 494.72124565 426.55354279 494.12649983 C426.88354279 493.13649983 427.21354279 492.14649983 427.55354279 491.12649983 C429.41365998 491.17870686 429.41365998 491.17870686 431.31135529 491.23196858 C443.55194411 491.46054441 455.46734342 490.66708816 467.6328885 489.3408553 C477.53494461 488.27940601 487.42588097 487.52779233 497.36604279 486.93899983 C498.41557633 486.87522145 498.41557633 486.87522145 499.48631257 486.81015462 C503.84077317 486.54765874 508.19564912 486.32328328 512.55354279 486.12649983 C513.95805695 486.04988118 513.95805695 486.04988118 515.39094514 485.97171468 C521.01421101 485.77804328 521.01421101 485.77804328 523.2652089 487.23238915 C525.17807204 490.0446838 524.91781002 492.29040617 524.90516633 495.67055196 C524.90772813 496.67237589 524.90772813 496.67237589 524.91034168 497.6944387 C524.9126068 499.93758986 524.89357078 502.18006398 524.87483186 504.42313069 C524.87238884 506.02969657 524.87136023 507.63626513 524.87164277 509.24283284 C524.86981312 512.70670682 524.85911719 516.1704026 524.84197205 519.63423413 C524.81607502 525.11963167 524.817122 530.60481693 524.82325715 536.09026021 C524.8368552 551.69040629 524.81932978 567.29036379 524.76301545 582.89041585 C524.73215798 591.50338622 524.72652203 600.11600849 524.74790138 608.7290113 C524.75997563 614.17290417 524.74128997 619.61552386 524.69941634 625.05925518 C524.68068389 628.4623098 524.69147094 631.86481488 524.71026772 635.26784962 C524.71314917 636.83508052 524.70425626 638.40238893 524.68210381 639.96946591 C524.5078159 653.06064278 528.06496657 661.41656145 536.92854279 671.06399983 C538.96486414 673.18684137 538.96486414 673.18684137 541.55354279 675.12649983 C542.32808305 675.75472897 542.32808305 675.75472897 543.11827058 676.39564961 C550.99076341 681.77156219 560.1431444 680.85008144 569.27229279 680.79056233 C571.09875277 680.79393596 572.92521056 680.79879312 574.75166291 680.80505818 C578.56784035 680.81240374 582.38343011 680.80179925 586.19953889 680.7783553 C591.07186897 680.74986869 595.94282168 680.76628518 600.81510133 680.79621762 C604.58316753 680.8143536 608.35091141 680.80850383 612.11898774 680.79557866 C613.91459287 680.79226202 615.71022801 680.79626989 617.50579804 680.80797642 C630.87928029 681.04585899 630.87928029 681.04585899 642.55354279 675.12649983 C643.14504121 674.65212483 643.73653962 674.17774983 644.34596223 673.68899983 C645.92201376 672.36607116 647.35879342 670.96587895 648.80354279 669.50149983 C649.29338654 669.04388264 649.78323029 668.58626546 650.28791779 668.11478108 C658.69246756 659.73258384 660.19026372 650.13023068 660.23624611 638.79391241 C660.22751082 637.03724424 660.21829449 635.2805784 660.20864838 633.52391499 C660.21656602 631.63665593 660.22664873 629.74940492 660.23869884 627.86216772 C660.26531946 622.69586072 660.26089183 617.52998259 660.25114328 612.36363345 C660.24599736 606.78400441 660.26956539 601.20448407 660.28927583 595.62489766 C660.323052 584.70086592 660.32941323 573.77698415 660.32528768 562.85290722 C660.32219474 553.97075606 660.32775828 545.0886511 660.33943719 536.20650738 C660.34274113 533.64605769 660.34604472 531.08560799 660.34934795 528.52515829 C660.35099473 527.25066094 660.35264151 525.9761636 660.35433819 524.66304513 C660.37565325 507.41025773 660.38717404 490.15749253 660.3786971 472.90469521 C660.37836877 472.23047488 660.37804044 471.55625456 660.37770216 470.86160331 C660.37600758 467.44469019 660.374217 464.02777713 660.37239084 460.61086408 C660.37202872 459.93230261 660.3716666 459.25374114 660.37129351 458.5546172 C660.37055976 457.18240149 660.3698209 455.81018578 660.36907694 454.43797007 C660.3577541 433.09453019 660.38110642 411.75137406 660.43171662 390.40799397 C660.48857698 366.4058367 660.51848426 342.40388239 660.50960243 318.40163553 C660.50544945 305.7015472 660.51312792 293.00173129 660.55220956 280.30169553 C660.58518323 269.48836274 660.59008566 258.67545846 660.5591198 247.86211232 C660.54410217 242.34901947 660.54174381 236.83671918 660.57447785 231.32368535 C660.60415681 226.26804809 660.59631869 221.21385327 660.55967035 216.15827449 C660.55286566 214.33800649 660.55931102 212.51762546 660.58100215 210.69747398 C660.74686812 195.74319595 657.27937243 184.35081571 647.24104279 172.87649983 C640.15401503 165.6888449 630.34644834 164.69966295 620.7813012 164.57955998 C618.29760729 164.57046126 615.81455291 164.58167885 613.33088654 164.59524983 C611.57694251 164.59254905 609.82299994 164.58866178 608.06906098 164.58365315 C604.41034017 164.57778716 600.75201248 164.58622771 597.09333771 164.60501546 C592.42758635 164.62782041 587.76275485 164.61465392 583.09703702 164.5907256 C579.4808061 164.57620314 575.86478975 164.58090269 572.24855202 164.59123677 C570.52913331 164.59388541 568.80969446 164.59070068 567.09029931 164.58131856 C553.26016283 164.52238496 543.65330469 165.86468638 533.82307404 176.32962483 Z " fill="#000000" transform="translate(144.4464572072029,32.87350016832352)"/>
<path d="M0 0 C1.77014376 -0.00270179 3.54028606 -0.00658988 5.3104248 -0.01159668 C9.00185418 -0.01745949 12.69289368 -0.0090336 16.38427734 0.00976562 C21.08455196 0.03255336 25.78391255 0.01941284 30.48415375 -0.00452423 C34.13391848 -0.01906991 37.78347122 -0.01433635 41.4332428 -0.00401306 C43.16496391 -0.00136992 44.89670511 -0.00452922 46.62840271 -0.01393127 C60.76752658 -0.07387607 73.69963039 1.37426414 84.53125 11.53125 C90.97654751 19.67907892 95.01468648 28.19606892 94.9031868 38.65607262 C94.90694793 39.43727093 94.91070906 40.21846924 94.91458416 41.02334023 C94.92350523 43.63288696 94.91109963 46.24188373 94.89874268 48.85140991 C94.90076776 50.74447259 94.90410799 52.63753424 94.90864825 54.53059256 C94.91729216 59.7265988 94.90723452 64.92242613 94.89410591 70.11841679 C94.88320592 75.72452221 94.88962126 81.33061114 94.89389038 86.9367218 C94.89952465 97.91729702 94.88920687 108.89780242 94.87360242 119.87836574 C94.85606584 132.66559346 94.8546432 145.45280763 94.85398683 158.2400455 C94.85229854 181.057184 94.83650354 203.87428307 94.8125 226.69140625 C94.78921413 248.83105728 94.77503417 270.97068838 94.77148438 293.11035156 C94.7713171 294.13318479 94.7713171 294.13318479 94.77114645 295.17668132 C94.77069758 297.92585063 94.77025561 300.67501993 94.76981402 303.42418924 C94.76959364 304.7942931 94.76937235 306.16439697 94.76915014 307.53450083 C94.76892878 308.90128993 94.76871001 310.26807902 94.76849384 311.63486811 C94.7649763 333.41513303 94.75350213 355.19539422 94.7406875 376.97565549 C94.73625456 384.62162029 94.73281531 392.26758478 94.73006538 399.91355036 C94.72562974 412.04379876 94.71784557 424.17403515 94.70329097 436.30427597 C94.69669156 441.84670184 94.69161928 447.38911716 94.69083023 452.93154716 C94.69004165 458.00685613 94.68461895 463.08213841 94.67551073 468.15743907 C94.67300859 469.9918191 94.67216691 471.82620232 94.67316952 473.66058378 C94.68627915 503.39158622 94.68627915 503.39158622 83.96875 514.53125 C77.46515288 520.53125 77.46515288 520.53125 73.53125 520.53125 C73.53125 521.19125 73.53125 521.85125 73.53125 522.53125 C64.48958273 526.5442257 55.3319109 525.98589401 45.62890625 525.96484375 C43.78242299 525.96941182 41.93594142 525.97471925 40.08946228 525.98072815 C36.23055081 525.98963322 32.37184659 525.98726581 28.51293945 525.97729492 C23.5893472 525.96580712 18.66647237 525.98602717 13.74297428 526.01521206 C9.93289208 526.03363507 6.12297991 526.03326951 2.3128643 526.02757454 C0.49853954 526.02742208 -1.3157973 526.03340364 -3.13007927 526.04586601 C-17.41660633 526.13019171 -27.13852754 524.78730216 -37.91015625 514.53515625 C-44.27159053 507.06654104 -48.57790308 497.8298922 -48.62023926 487.98910522 C-48.62658787 486.98789011 -48.62658787 486.98789011 -48.63306475 485.96644843 C-48.64610128 483.72551416 -48.6521178 481.48461547 -48.65820312 479.24365234 C-48.66614451 477.63893923 -48.67453239 476.03422828 -48.68333435 474.42951965 C-48.70139774 470.97224934 -48.71641087 467.5149838 -48.72911072 464.05768967 C-48.74930937 458.59634089 -48.77696328 453.1350457 -48.80578613 447.67373657 C-48.87101508 435.0975452 -48.92646252 422.5213142 -48.98177338 409.94507599 C-49.03257154 398.41526112 -49.08540688 386.88546574 -49.14629889 375.35569918 C-49.17471555 369.92094403 -49.19828662 364.48619539 -49.21822357 359.05140281 C-49.23156966 355.67855444 -49.24898375 352.3057362 -49.26753426 348.93291283 C-49.27531802 347.36270722 -49.28137537 345.79249202 -49.28562737 344.22227287 C-49.2916352 342.08793925 -49.3036638 339.95372419 -49.31726074 337.81942749 C-49.32241447 336.62222769 -49.32756821 335.42502789 -49.33287811 334.1915493 C-49.16684464 331.60978249 -49.16684464 331.60978249 -50.46875 330.53125 C-60.10829891 330.02522162 -69.66354767 330.75256583 -79.24938965 331.75613403 C-82.738931 332.12128325 -86.23069688 332.46355303 -89.72265625 332.8046875 C-90.74007401 332.90454704 -90.74007401 332.90454704 -91.77804565 333.00642395 C-97.79258852 333.58559772 -103.80056097 333.92473008 -109.83544922 334.18505859 C-114.89121462 334.42863545 -119.73292347 335.18340163 -124.69921875 336.12109375 C-129.28397615 336.80007757 -133.84691694 336.69501574 -138.46875 336.53125 C-138.46875 337.19125 -138.46875 337.85125 -138.46875 338.53125 C-139.5218335 338.58547119 -140.57491699 338.63969238 -141.65991211 338.69555664 C-167.10255227 340.04129404 -192.40104364 342.22658384 -217.71875 345.03125 C-218.42354996 345.10922947 -219.12834991 345.18720894 -219.85450745 345.26755142 C-223.37242037 345.65682929 -226.89027351 346.04664599 -230.40811157 346.43659973 C-231.08719196 346.51186197 -231.76627235 346.58712421 -232.46593094 346.66466713 C-233.81935634 346.81472642 -235.17276782 346.96491134 -236.52616501 347.11522484 C-255.44681859 349.21490306 -274.3924055 350.82888521 -293.37109375 352.30078125 C-294.22255478 352.36709747 -295.07401581 352.4334137 -295.95127869 352.5017395 C-300.06301878 352.82170961 -304.17494135 353.13767123 -308.2878418 353.44238281 C-312.68458833 353.7722237 -317.07688796 354.14215528 -321.46875 354.53125 C-322.22651733 354.59495789 -322.98428467 354.65866577 -323.76501465 354.7243042 C-325.9995536 354.91920638 -328.22977708 355.14101254 -330.4609375 355.37109375 C-331.76144043 355.49734131 -333.06194336 355.62358887 -334.40185547 355.75366211 C-337.47864694 356.18741304 -337.47864694 356.18741304 -338.6451292 358.13680935 C-339.75933359 361.37603823 -339.71615671 364.19278286 -339.71357727 367.61988831 C-339.71697413 368.69143084 -339.71697413 368.69143084 -339.72043961 369.7846207 C-339.72573738 372.17885126 -339.71690286 374.5728233 -339.70825195 376.96704102 C-339.70936485 378.68375227 -339.71142268 380.40046313 -339.71435547 382.11717224 C-339.71908 385.81561461 -339.71795497 389.5139935 -339.71257973 393.21243477 C-339.7049716 399.06728312 -339.71562495 404.92200917 -339.7297821 410.77684021 C-339.76752242 427.42650806 -339.78573179 444.07612137 -339.77416992 460.72583008 C-339.76794236 469.92035443 -339.77959359 479.11468182 -339.81061524 488.30915779 C-339.82922186 494.12184436 -339.82599557 499.93397101 -339.80644763 505.74664795 C-339.79953589 509.37574567 -339.81358255 513.00454403 -339.83339691 516.63358498 C-339.83841855 518.30763666 -339.83502607 519.98173971 -339.82226372 521.65575027 C-339.75002166 531.86328542 -339.95146115 541.85281772 -347.5131731 549.63538456 C-348.15851348 550.26102015 -348.80385386 550.88665575 -349.46875 551.53125 C-350.12875 552.52125 -350.78875 553.51125 -351.46875 554.53125 C-352.12875 554.53125 -352.78875 554.53125 -353.46875 554.53125 C-353.46875 555.19125 -353.46875 555.85125 -353.46875 556.53125 C-354.066875 556.799375 -354.665 557.0675 -355.28125 557.34375 C-357.4733768 558.38964358 -357.4733768 558.38964358 -358.84375 559.96875 C-364.41295167 565.3237516 -371.16089354 565.68353928 -378.44335938 565.73999023 C-379.2439679 565.74977402 -380.04457642 565.7595578 -380.8694458 565.76963806 C-383.51711385 565.79952874 -386.16473133 565.82096614 -388.8125 565.83984375 C-389.72058914 565.84641558 -390.62867828 565.8529874 -391.56428528 565.85975838 C-396.37617434 565.89233265 -401.18804153 565.91678196 -406 565.9362793 C-409.96517554 565.95404616 -413.92963374 565.98879456 -417.89453125 566.03881836 C-422.69734988 566.09933155 -427.49950694 566.12979796 -432.3026886 566.13945198 C-434.12380171 566.14795886 -435.94489943 566.16665772 -437.76579285 566.1961956 C-451.23592141 566.40284374 -460.98585326 564.91227491 -471.21875 555.28125 C-474.46875 551.87271341 -474.46875 551.87271341 -474.46875 549.53125 C-475.12875 549.53125 -475.78875 549.53125 -476.46875 549.53125 C-477.14135351 547.76266309 -477.80663395 545.99128984 -478.46875 544.21875 C-478.84 543.23261719 -479.21125 542.24648438 -479.59375 541.23046875 C-480.46875 538.53125 -480.46875 538.53125 -480.46875 535.53125 C-481.12875 535.53125 -481.78875 535.53125 -482.46875 535.53125 C-482.53741016 477.37200611 -482.59028184 419.21276513 -482.62194599 361.05348883 C-482.62568794 354.18792152 -482.62957761 347.32235429 -482.63354492 340.45678711 C-482.6339372 339.77358751 -482.63432948 339.0903879 -482.63473364 338.38648528 C-482.64751338 316.24953183 -482.67004409 294.11260138 -482.69764166 271.97566186 C-482.72675764 248.57821366 -482.7447411 225.18078465 -482.75101548 201.78331691 C-482.75513269 187.76905556 -482.76813867 173.75486025 -482.7924994 159.74061922 C-482.80835196 150.13173906 -482.81315143 140.52289306 -482.80925413 130.91400077 C-482.80733186 125.36943817 -482.81028769 119.82499101 -482.82636642 114.28044891 C-482.84098694 109.20163473 -482.84168829 104.12301341 -482.83144668 99.04419027 C-482.83018125 97.20954789 -482.83396846 95.37489339 -482.84339955 93.54027482 C-482.91422403 78.90880817 -482.21473893 67.50033905 -471.46875 56.53125 C-463.81642025 49.53125 -463.81642025 49.53125 -458.46875 49.53125 C-458.46875 48.87125 -458.46875 48.21125 -458.46875 47.53125 C-454.7953478 46.3067826 -451.40154601 46.37575183 -447.57592773 46.37011719 C-446.77225266 46.36515228 -445.96857758 46.36018738 -445.14054871 46.35507202 C-442.47780501 46.34045202 -439.81512102 46.33364659 -437.15234375 46.328125 C-435.29728698 46.32237082 -433.44223021 46.31661312 -431.58717346 46.31085205 C-427.69247155 46.30034074 -423.79779027 46.29449978 -419.90307617 46.29101562 C-414.93237899 46.28554854 -409.96195817 46.26155944 -404.99134731 46.23304367 C-401.15555551 46.21433631 -397.31982899 46.20920727 -393.48399544 46.20767975 C-391.65291912 46.20466796 -389.82184355 46.19668969 -387.9908123 46.18349457 C-373.09538143 46.0838668 -362.00870805 47.06929722 -350.46875 57.53125 C-347.76698411 60.68084958 -345.48205296 63.90402212 -343.46875 67.53125 C-342.95269196 68.42635284 -342.43663391 69.32145569 -341.90493774 70.24368286 C-339.35202558 76.33648194 -340.03754852 83.22911267 -340.05224609 89.72216797 C-340.04486027 91.268363 -340.03615347 92.8145522 -340.02622986 94.36073303 C-340.00297026 98.54416714 -339.99776128 102.72745274 -339.99557066 106.91094351 C-339.98990059 111.28940375 -339.96662361 115.66776785 -339.94497681 120.0461731 C-339.90649754 128.33207202 -339.88224838 136.61794332 -339.86385214 144.90390885 C-339.83039555 159.76389292 -339.77281224 174.62379471 -339.70986044 189.48367989 C-339.68832523 194.70101077 -339.67308115 199.91831279 -339.66302085 205.13567805 C-339.65602613 208.3708535 -339.64515012 211.60600813 -339.63337898 214.84116936 C-339.62880392 216.34687944 -339.62596955 217.85259591 -339.62495613 219.35831261 C-339.62339503 221.40480752 -339.61528539 223.45129438 -339.60678101 225.49777222 C-339.60422491 226.64553068 -339.60166882 227.79328915 -339.59903526 228.97582817 C-339.75829908 231.46509601 -339.75829908 231.46509601 -338.46875 232.53125 C-328.92770713 233.09563434 -319.25234623 232.26501459 -309.71875 231.71875 C-308.94608795 231.67523407 -308.1734259 231.63171814 -307.37734985 231.58688354 C-297.16153698 231.00139931 -287.06350509 230.13499162 -276.92602539 228.70996094 C-265.57441393 227.16531332 -254.14898315 226.42443422 -242.7253418 225.62133789 C-233.37851084 224.9872384 -233.37851084 224.9872384 -224.12890625 223.5625 C-215.44042887 221.81388083 -206.53639466 221.35145076 -197.71875 220.59375 C-193.76804538 220.24817098 -189.81760579 219.89961634 -185.8671875 219.55078125 C-184.89045074 219.46500824 -183.91371399 219.37923523 -182.90737915 219.29086304 C-177.04018395 218.77205574 -171.17880728 218.21452702 -165.3203125 217.60546875 C-151.99082606 216.22478742 -138.87751523 215.03462907 -125.46875 215.53125 C-125.46875 214.87125 -125.46875 214.21125 -125.46875 213.53125 C-124.56086227 213.4502153 -123.65297455 213.3691806 -122.71757507 213.28569031 C-114.16716375 212.52010608 -105.61804524 211.74163783 -97.07013226 210.94862652 C-92.67537647 210.54137399 -88.28028055 210.13914109 -83.8840332 209.74829102 C-79.64243645 209.37100535 -75.40222881 208.98065084 -71.16266823 208.58115578 C-69.54396042 208.43095373 -67.92480597 208.28548823 -66.30524254 208.14481163 C-64.03896723 207.94715028 -61.7748565 207.73279339 -59.51049805 207.5144043 C-58.22032272 207.39671188 -56.9301474 207.27901947 -55.60087585 207.15776062 C-52.22109291 206.48171183 -51.40249767 206.27961441 -49.46875 203.53125 C-49.01460588 200.38449266 -49.01460588 200.38449266 -49.09020996 196.70799255 C-49.08341477 195.66117462 -49.08341477 195.66117462 -49.0764823 194.59320885 C-49.06483155 192.24871854 -49.07451598 189.90479586 -49.08398438 187.56030273 C-49.07988026 185.88152192 -49.07442034 184.20274395 -49.06770325 182.52397156 C-49.05596168 178.90460669 -49.05349996 175.28539439 -49.05805969 171.66601372 C-49.06486209 165.93750592 -49.04901172 160.20919909 -49.02966309 154.48072815 C-48.99176253 142.31007966 -48.9790127 130.13944844 -48.96875 117.96875 C-48.95767499 104.85371218 -48.94223332 91.73876682 -48.89803743 78.62379223 C-48.87972395 72.93555615 -48.87577409 67.24754923 -48.88297272 61.55929077 C-48.88450059 58.00897744 -48.87367204 54.45877739 -48.85959435 50.90849495 C-48.85561001 49.26950128 -48.85668524 47.63048575 -48.86336708 45.99150085 C-48.91918236 31.15305082 -46.73191063 20.84511424 -36.65625 9.48828125 C-26.52316854 -0.41258376 -13.22305769 -0.07179307 0 0 Z M-35.19921875 16.734375 C-41.84578218 24.92532063 -44.58172209 32.22616971 -44.61351013 42.68681335 C-44.61703698 43.39612891 -44.62056382 44.10544446 -44.62419754 44.83625442 C-44.63485012 47.20684232 -44.63855941 49.57738998 -44.64233398 51.94799805 C-44.64864162 53.64990406 -44.65540765 55.35180842 -44.66259766 57.05371094 C-44.67724855 60.71502527 -44.68898067 64.37633331 -44.69854546 68.03766441 C-44.71400361 73.82289494 -44.73795007 79.60807089 -44.76344299 85.39326477 C-44.83463912 101.84262652 -44.89453697 118.29201875 -44.94555664 134.74145508 C-44.97381719 143.82891547 -45.00916901 152.91632077 -45.05221039 162.00372344 C-45.07904042 167.75935095 -45.09690941 173.51491617 -45.10824764 179.270594 C-45.11734554 182.84345345 -45.13469288 186.41623677 -45.15442657 189.98905182 C-45.1619264 191.65075044 -45.16598459 193.31246854 -45.16642189 194.97418404 C-45.16749776 197.2351544 -45.18068453 199.49573361 -45.19700623 201.75663757 C-45.20123816 203.02406138 -45.2054701 204.2914852 -45.20983028 205.59731579 C-45.46875 208.53125 -45.46875 208.53125 -47.46875 210.53125 C-49.70637512 210.96589661 -49.70637512 210.96589661 -52.54614258 211.22973633 C-54.15398621 211.38575317 -54.15398621 211.38575317 -55.79431152 211.54492188 C-56.97207153 211.64998047 -58.14983154 211.75503906 -59.36328125 211.86328125 C-60.59445679 211.98018311 -61.82563232 212.09708496 -63.09411621 212.2175293 C-65.7617247 212.46951864 -68.42939961 212.71822343 -71.09780884 212.96133423 C-75.28831077 213.3431373 -79.47757251 213.73749121 -83.66674805 214.13354492 C-91.56363709 214.87820946 -99.46177769 215.60897774 -107.36022949 216.33685303 C-117.00296648 217.22587397 -126.64516937 218.12060673 -136.28695679 219.01986694 C-139.74992725 219.34084672 -143.21341357 219.6557378 -146.67700195 219.9699707 C-148.77036171 220.16339401 -150.86370577 220.35698736 -152.95703125 220.55078125 C-153.91444214 220.63593994 -154.87185303 220.72109863 -155.85827637 220.80883789 C-156.72142456 220.88972656 -157.58457275 220.97061523 -158.47387695 221.05395508 C-159.22619095 221.1224617 -159.97850494 221.19096832 -160.75361633 221.2615509 C-162.49697699 221.36324933 -162.49697699 221.36324933 -163.46875 222.53125 C-165.5669293 222.74910512 -167.67176865 222.90330186 -169.77734375 223.03125 C-171.08251953 223.11375 -172.38769531 223.19625 -173.73242188 223.28125 C-175.12368096 223.36486599 -176.51495717 223.44819743 -177.90625 223.53125 C-192.05748291 223.38550396 -192.05748291 223.38550396 -205.46875 226.53125 C-208.28469854 226.73919697 -211.08660111 226.90551834 -213.90625 227.03125 C-219.77139963 227.23257605 -219.77139963 227.23257605 -225.46875 228.53125 C-226.79739813 228.71505585 -228.13155463 228.86080044 -229.4675293 228.98022461 C-230.67352531 229.09065094 -230.67352531 229.09065094 -231.90388489 229.20330811 C-232.77478256 229.27930237 -233.64568024 229.35529663 -234.54296875 229.43359375 C-235.45145065 229.51563049 -236.35993256 229.59766724 -237.29594421 229.68218994 C-240.24907766 229.94787814 -243.2026452 230.20835881 -246.15625 230.46875 C-248.17206132 230.64923245 -250.18784911 230.82997802 -252.20361328 231.01098633 C-263.67776271 232.03755651 -275.15369572 233.04561419 -286.6394043 233.93530273 C-287.89684448 234.03500366 -287.89684448 234.03500366 -289.1796875 234.13671875 C-290.22068604 234.21635864 -290.22068604 234.21635864 -291.28271484 234.29760742 C-292.95270239 234.47609503 -294.6145621 234.73225915 -296.26879883 235.02246094 C-299.83687074 235.58978083 -303.35076607 235.84745684 -306.95703125 236.06640625 C-307.65966599 236.10938339 -308.36230072 236.15236053 -309.08622742 236.19664001 C-310.56609987 236.28636377 -312.04606822 236.37451831 -313.52612305 236.46118164 C-315.76445002 236.59276241 -318.00232993 236.73057907 -320.24023438 236.86914062 C-324.3152805 237.11738841 -328.39105862 237.33097046 -332.46875 237.53125 C-333.92547119 237.61221924 -333.92547119 237.61221924 -335.41162109 237.69482422 C-340.93174036 237.88363218 -340.93174036 237.88363218 -343.17329502 236.4127388 C-345.07077829 233.65687805 -344.84224173 231.50869751 -344.84056091 228.18133545 C-344.84438548 227.53442631 -344.84821004 226.88751717 -344.8521505 226.22100472 C-344.86145041 224.04913647 -344.84943525 221.87790326 -344.83764648 219.70605469 C-344.84011395 218.15048457 -344.84395181 216.59491611 -344.84906006 215.03935242 C-344.85740652 211.68680036 -344.85658323 208.33441809 -344.84887505 204.98186493 C-344.83730387 199.67844265 -344.84944558 194.3752393 -344.86549377 189.07183838 C-344.90171187 175.89570442 -344.90791996 162.71957519 -344.90539551 149.543396 C-344.90368384 139.31022065 -344.91082678 129.07722377 -344.94537407 118.84409833 C-344.96215901 113.57476832 -344.96038065 108.30587349 -344.94455135 103.03654528 C-344.93874612 99.7529338 -344.94950978 96.46952772 -344.96479797 93.18595314 C-344.96851818 91.66663778 -344.9654335 90.14728767 -344.95492744 88.62800407 C-344.77694977 77.89964447 -344.77694977 77.89964447 -349.46875 68.53125 C-350.29826172 67.43103516 -350.29826172 67.43103516 -351.14453125 66.30859375 C-357.77341863 58.85702823 -364.00287521 52.17978952 -374.40097046 51.13684082 C-375.84706119 51.11322493 -377.29347399 51.10557565 -378.73974609 51.11132812 C-379.535858 51.10285858 -380.33196991 51.09438904 -381.15220642 51.08566284 C-383.7656991 51.06239766 -386.3785994 51.06126819 -388.9921875 51.0625 C-390.82150504 51.05539186 -392.65082037 51.04769191 -394.48013306 51.03942871 C-398.30810752 51.02600779 -402.13587583 51.02440427 -405.96386719 51.03027344 C-410.85186842 51.0361659 -415.73887516 51.00558576 -420.62668419 50.96515656 C-424.40328229 50.93921521 -428.179643 50.93640798 -431.9563179 50.94004822 C-433.75752892 50.93836285 -435.5587516 50.92877686 -437.35987473 50.91090393 C-450.768545 50.60572572 -450.768545 50.60572572 -462.46875 56.53125 C-463.00521652 56.96093582 -463.54168304 57.39062164 -464.09440613 57.83332825 C-465.55727644 59.09618384 -466.9227022 60.46928949 -468.28125 61.84375 C-469.17457031 62.72675781 -470.06789063 63.60976563 -470.98828125 64.51953125 C-475.89032453 70.47146096 -478.07469567 75.85304221 -477.97211456 83.64045525 C-477.97792833 84.41996518 -477.98374209 85.19947512 -477.98973203 86.00260657 C-478.00429388 88.60653828 -477.99046501 91.2095217 -477.97668457 93.81344604 C-477.98129501 95.70238702 -477.98764889 97.5913244 -477.99559355 99.48025429 C-478.01229056 104.66489196 -478.00403867 109.84923508 -477.99164867 115.0338738 C-477.98260197 120.62772571 -477.99656613 126.22152682 -478.00756836 131.81536865 C-478.02536287 142.77188825 -478.02150921 153.72829828 -478.0099178 164.68482219 C-478.00088651 173.58997123 -477.99965816 182.49508955 -478.00401306 191.40024185 C-478.00462599 192.66738615 -478.00523893 193.93453045 -478.00587043 195.24007306 C-478.00714933 197.81422949 -478.00844618 200.3883859 -478.0097608 202.96254231 C-478.02084429 226.4177239 -478.00934675 249.87283194 -477.98839041 273.32800038 C-477.96941277 294.73123148 -477.97110282 316.13436738 -477.99023438 337.53759766 C-478.01166328 361.59129388 -478.02006635 385.64492512 -478.00778532 409.69863427 C-478.00651112 412.26396504 -478.00525364 414.82929583 -478.00401306 417.39462662 C-478.00339596 418.6568221 -478.00277886 419.91901758 -478.00214306 421.2194614 C-477.9986899 430.1125669 -478.00451787 439.0056386 -478.01393127 447.89873886 C-478.025153 458.73857101 -478.02210762 469.5782873 -478.0008083 480.41810618 C-477.99029968 485.94844317 -477.98617297 491.47858704 -477.99940491 497.00892258 C-478.01133852 502.0732525 -478.00474995 507.13721059 -477.9834947 512.20150687 C-477.97903274 514.03184705 -477.98128577 515.86221875 -477.99099785 517.6925386 C-478.04601717 528.92448484 -477.88090977 538.6282207 -470.2265625 547.53515625 C-469.03119075 548.73703874 -467.82004337 549.92343393 -466.59375 551.09375 C-465.69462891 552.01510742 -465.69462891 552.01510742 -464.77734375 552.95507812 C-461.17672414 556.48930887 -458.73009441 558.33012827 -453.46875 558.53125 C-453.46875 559.19125 -453.46875 559.85125 -453.46875 560.53125 C-442.80244799 560.64737411 -432.13629769 560.73608197 -421.469491 560.79031086 C-416.51580961 560.81634521 -411.56256241 560.85163012 -406.60913086 560.90844727 C-401.82396141 560.96298757 -397.03920818 560.99271684 -392.25375175 561.00563622 C-390.43296194 561.01483671 -388.61219353 561.03280311 -386.79158211 561.05990028 C-373.25317202 561.51317892 -373.25317202 561.51317892 -361.46875 555.53125 C-360.87209534 555.03995605 -360.27544067 554.54866211 -359.66070557 554.04248047 C-358.0723217 552.67058957 -356.61620356 551.22586222 -355.15625 549.71875 C-354.65802734 549.23599609 -354.15980469 548.75324219 -353.64648438 548.25585938 C-346.09753362 540.62713107 -344.96130326 533.48465165 -344.95204163 523.1461792 C-344.96313162 521.47985611 -344.9745721 519.81353532 -344.98632812 518.1472168 C-344.98414034 516.37752481 -344.98014067 514.60783428 -344.97447205 512.83815002 C-344.96592967 509.03928072 -344.96965834 505.24069442 -344.9828949 501.44183922 C-345.00326465 495.43759821 -344.99324145 489.43364135 -344.9786377 483.42939758 C-344.95191446 470.69248939 -344.95861568 457.95567418 -344.96875 445.21875 C-344.97969414 431.4504712 -344.98499575 417.6823384 -344.95145559 403.91408473 C-344.93805685 397.94198821 -344.94407603 391.97031781 -344.96482086 385.99824655 C-344.97378078 382.290933 -344.96635714 378.58378532 -344.95440865 374.87648582 C-344.95227091 373.15390976 -344.95703928 371.43130964 -344.9691143 369.70877457 C-344.98463824 367.36262535 -344.97581285 365.01779963 -344.96081543 362.67167664 C-344.96232353 361.35745067 -344.96383163 360.0432247 -344.96538544 358.6891737 C-344.46875 355.53125 -344.46875 355.53125 -342.58841705 353.61575031 C-340.08211169 352.3334315 -338.2054223 352.04784889 -335.3984375 351.87109375 C-333.92890625 351.7637793 -333.92890625 351.7637793 -332.4296875 351.65429688 C-331.41132813 351.59306641 -330.39296875 351.53183594 -329.34375 351.46875 C-322.71890116 351.03538877 -316.36240482 350.40296292 -309.86865234 349.00610352 C-305.8870217 348.21828341 -301.88456883 347.87153764 -297.84375 347.53125 C-296.48515869 347.41160889 -296.48515869 347.41160889 -295.09912109 347.28955078 C-281.24199196 346.11630317 -267.35069062 345.34567813 -253.46875 344.53125 C-253.46875 343.87125 -253.46875 343.21125 -253.46875 342.53125 C-252.40527344 342.57765625 -251.34179688 342.6240625 -250.24609375 342.671875 C-237.37543651 343.02831454 -224.75201426 341.93770351 -211.96875 340.59375 C-211.09451385 340.50234741 -210.22027771 340.41094482 -209.31954956 340.31677246 C-206.79582682 340.05056035 -204.27277024 339.77898954 -201.75 339.50390625 C-200.98925674 339.42155228 -200.22851349 339.3391983 -199.44471741 339.25434875 C-196.58161553 338.93328892 -193.7574871 338.59161927 -190.93603516 338.00170898 C-187.54566006 337.35523631 -184.15065477 337.20414207 -180.7109375 337.03125 C-179.96723907 336.99064453 -179.22354065 336.95003906 -178.45730591 336.90820312 C-176.08628936 336.77914288 -173.71505769 336.65483607 -171.34375 336.53125 C-168.23683831 336.36712095 -165.13006731 336.20063172 -162.0234375 336.03125 C-160.90748199 335.97046265 -160.90748199 335.97046265 -159.76898193 335.90844727 C-153.98874623 335.583308 -148.22797748 335.12599582 -142.46875 334.53125 C-142.13875 333.54125 -141.80875 332.55125 -141.46875 331.53125 C-139.60863281 331.58345703 -139.60863281 331.58345703 -137.7109375 331.63671875 C-125.47034868 331.86529457 -113.55494937 331.07183833 -101.3894043 329.74560547 C-91.48734818 328.68415618 -81.59641182 327.9325425 -71.65625 327.34375 C-70.60671646 327.27997162 -70.60671646 327.27997162 -69.53598022 327.21490479 C-65.18151962 326.95240891 -60.82664367 326.72803345 -56.46875 326.53125 C-55.06423584 326.45463135 -55.06423584 326.45463135 -53.63134766 326.37646484 C-48.00808179 326.18279345 -48.00808179 326.18279345 -45.75708389 327.63713932 C-43.84422075 330.44943397 -44.10448277 332.69515634 -44.11712646 336.07530212 C-44.11456467 337.07712606 -44.11456467 337.07712606 -44.11195111 338.09918886 C-44.10968599 340.34234003 -44.12872201 342.58481415 -44.14746094 344.82788086 C-44.14990396 346.43444674 -44.15093256 348.0410153 -44.15065002 349.64758301 C-44.15247967 353.11145699 -44.16317561 356.57515276 -44.18032074 360.0389843 C-44.20621777 365.52438184 -44.20517079 371.0095671 -44.19903564 376.49501038 C-44.1854376 392.09515645 -44.20296301 407.69511396 -44.25927734 423.29516602 C-44.29013481 431.90813639 -44.29577077 440.52075866 -44.27439141 449.13376147 C-44.26231716 454.57765434 -44.28100282 460.02027403 -44.32287645 465.46400535 C-44.34160891 468.86705997 -44.33082185 472.26956505 -44.31202507 475.67259979 C-44.30914363 477.23983069 -44.31803653 478.8071391 -44.34018898 480.37421608 C-44.51447689 493.46539295 -40.95732622 501.82131162 -32.09375 511.46875 C-30.05742865 513.59159154 -30.05742865 513.59159154 -27.46875 515.53125 C-26.69420975 516.15947914 -26.69420975 516.15947914 -25.90402222 516.80039978 C-18.03152938 522.17631236 -8.8791484 521.2548316 0.25 521.1953125 C2.07645998 521.19868613 3.90291777 521.20354329 5.72937012 521.20980835 C9.54554756 521.21715391 13.36113732 521.20654942 17.17724609 521.18310547 C22.04957618 521.15461885 26.92052888 521.17103534 31.79280853 521.20096779 C35.56087474 521.21910377 39.32861861 521.213254 43.09669495 521.20032883 C44.89230007 521.19701219 46.68793522 521.20102006 48.48350525 521.21272659 C61.85698749 521.45060916 61.85698749 521.45060916 73.53125 515.53125 C74.12274841 515.056875 74.71424683 514.5825 75.32366943 514.09375 C76.89972097 512.77082132 78.33650063 511.37062912 79.78125 509.90625 C80.27109375 509.44863281 80.7609375 508.99101563 81.265625 508.51953125 C89.67017477 500.13733401 91.16797093 490.53498085 91.21395332 479.19866258 C91.20521803 477.4419944 91.1960017 475.68532857 91.18635559 473.92866516 C91.19427323 472.04140609 91.20435594 470.15415509 91.21640605 468.26691788 C91.24302667 463.10061089 91.23859904 457.93473275 91.22885048 452.76838362 C91.22370457 447.18875458 91.24727259 441.60923424 91.26698303 436.02964783 C91.30075921 425.10561609 91.30712043 414.18173432 91.30299488 403.25765739 C91.29990194 394.37550623 91.30546549 385.49340127 91.31714439 376.61125755 C91.32044834 374.05080785 91.32375193 371.49035815 91.32705516 368.92990845 C91.32870194 367.65541111 91.33034872 366.38091377 91.3320454 365.0677953 C91.35336046 347.8150079 91.36488124 330.5622427 91.3564043 313.30944538 C91.35607597 312.63522505 91.35574764 311.96100473 91.35540936 311.26635348 C91.35371479 307.84944036 91.3519242 304.4325273 91.35009805 301.01561425 C91.34973593 300.33705278 91.34937381 299.65849131 91.34900072 298.95936737 C91.34826696 297.58715165 91.34752811 296.21493595 91.34678415 294.84272024 C91.33546131 273.49928036 91.35881363 252.15612423 91.40942383 230.81274414 C91.46628419 206.81058687 91.49619147 182.80863255 91.48730963 158.8063857 C91.48315666 146.10629737 91.49083513 133.40648146 91.52991676 120.70644569 C91.56289044 109.89311291 91.56779286 99.08020863 91.53682701 88.26686249 C91.52180938 82.75376964 91.51945102 77.24146935 91.55218506 71.72843552 C91.58186401 66.67279825 91.57402589 61.61860344 91.53737756 56.56302466 C91.53057287 54.74275666 91.53701822 52.92237563 91.55870936 51.10222415 C91.72457532 36.14794612 88.25707963 24.75556588 78.21875 13.28125 C71.13172223 6.09359506 61.32415555 5.10441312 51.75900841 4.98431015 C49.27531449 4.97521143 46.79226011 4.98642902 44.30859375 5 C42.55464972 4.99729922 40.80070715 4.99341195 39.04676819 4.98840332 C35.38804738 4.98253733 31.72971969 4.99097788 28.07104492 5.00976562 C23.40529356 5.03257058 18.74046205 5.01940409 14.07474422 4.99547577 C10.45851331 4.98095331 6.84249696 4.98565286 3.22625923 4.99598694 C1.50684052 4.99863557 -0.21259833 4.99545084 -1.93199348 4.98606873 C-15.76212996 4.92713513 -25.3689881 6.26943654 -35.19921875 16.734375 Z " fill="#ECECEC" transform="translate(713.46875,192.46875)"/>
<path d="M0 0 C4.25708771 -0.15203885 7.84830875 -0.1634346 11.9375 1.0625 C14.97880618 1.93395119 16.86535261 1.92941721 19.9375 1.25 C27.42195398 0.04666906 35.17857316 4.29805711 42 7 C42 7.66 42 8.32 42 9 C42.9590625 9.37125 42.9590625 9.37125 43.9375 9.75 C49.08986052 11.85300429 49.08986052 11.85300429 51.5 12.875 C52.2321875 13.18179688 52.964375 13.48859375 53.71875 13.8046875 C56.45756638 15.23975224 58.62828663 17.01870714 61 19 C61.82757812 19.65097656 62.65515625 20.30195312 63.5078125 20.97265625 C75.26633971 30.36192798 86.38541793 40.89357102 94 54 C94.94166016 55.58361328 94.94166016 55.58361328 95.90234375 57.19921875 C96.58138305 58.36159743 97.25975748 59.52436474 97.9375 60.6875 C98.27201172 61.24888672 98.60652344 61.81027344 98.95117188 62.38867188 C104.03973683 71.16375017 106.7397544 80.14841229 108.6875 90.0625 C108.89955078 91.08666016 109.11160156 92.11082031 109.33007812 93.16601562 C111.3294212 103.03658949 112.14838578 112.49576987 112.13142776 122.56484795 C112.1334804 123.7058157 112.13553303 124.84678346 112.13764787 126.02232599 C112.14330706 129.84960151 112.14186194 133.67684092 112.14044189 137.50411987 C112.14247718 140.27433811 112.14600081 143.04455402 112.1494453 145.81477082 C112.15701007 152.63245259 112.15921758 159.45012652 112.15977435 166.26781206 C112.1606895 174.43592697 112.16736155 182.60403467 112.17412117 190.77214647 C112.19016832 210.51300971 112.19608308 230.25387216 112.20086992 249.99474076 C112.20320725 259.33717381 112.20681006 268.67960626 112.2105653 278.02203884 C112.22339992 310.0145793 112.23411898 342.00711942 112.2375679 373.9996624 C112.23778953 376.00734584 112.23801132 378.01502928 112.23823325 380.02271271 C112.23845389 382.03519087 112.23867437 384.04766902 112.2388947 386.06014717 C112.23933725 390.09738978 112.23978437 394.13463239 112.24023438 398.171875 C112.24039846 399.6733731 112.24039846 399.6733731 112.24056586 401.2052045 C112.24419554 433.65397929 112.26011267 466.10273173 112.28342474 498.55149797 C112.30803782 532.87405747 112.32174143 567.1966042 112.32293582 601.51917279 C112.32310727 605.28921136 112.32332269 609.05924992 112.32357025 612.82928848 C112.3236539 614.22167958 112.3236539 614.22167958 112.32373925 615.64219979 C112.32488843 630.56085495 112.33589913 645.47948711 112.35045731 660.39813451 C112.36484564 675.40255183 112.36804612 690.40693977 112.36001733 705.4113621 C112.35557203 714.31680664 112.3593775 723.22215614 112.37525584 732.12758813 C112.38504687 738.08763781 112.38378848 744.04762131 112.37381961 750.00767047 C112.36845705 753.3961311 112.36930815 756.784263 112.38032833 760.17273138 C112.44616051 781.79236939 111.62941432 803.20348833 102 823 C100.35 822.67 98.7 822.34 97 822 C96.34 823.32 95.68 824.64 95 826 C95.58593049 822.66019618 96.41716614 819.7385873 97.75 816.625 C99.46102434 812.40364068 101.09517921 808.16573998 102.625 803.875 C103.02976562 802.75867188 103.43453125 801.64234375 103.8515625 800.4921875 C108.24635019 785.11890133 107.29276211 768.57362608 107.28088379 752.770401 C107.28496463 750.0066634 107.29200968 747.24293502 107.29889059 744.47920316 C107.31395639 737.70453027 107.31843187 730.92988894 107.3195487 724.15520102 C107.32138533 716.03262931 107.3347478 707.91008631 107.34824235 699.78752706 C107.38026883 680.16371887 107.39215766 660.53991396 107.40173985 640.91608433 C107.40642052 631.62383445 107.4136267 622.33158702 107.4211306 613.03933905 C107.44679156 581.19909356 107.46823216 549.3588494 107.4751358 517.51859379 C107.47557906 515.52221383 107.47602263 513.52583386 107.47646651 511.5294539 C107.47690778 509.52840944 107.47734874 507.52736498 107.4777894 505.52632052 C107.47867448 501.5122573 107.47956872 497.49819408 107.48046875 493.48413086 C107.48068753 492.48888657 107.48090631 491.49364228 107.48113173 490.46823907 C107.48839127 458.20515677 107.52023051 425.94216439 107.56684948 393.67911651 C107.61610752 359.52693937 107.64348426 325.37481361 107.64587164 291.22259992 C107.64621452 287.46941371 107.64664537 283.71622751 107.6471405 279.96304131 C107.64725204 279.03897691 107.64736358 278.11491252 107.64747849 277.16284618 C107.6497738 262.33220408 107.67176852 247.50165478 107.70091461 232.67104395 C107.72973189 217.74912776 107.73606945 202.82732976 107.72003466 187.90539337 C107.71116366 179.05661043 107.7186749 170.20821064 107.75051167 161.35947852 C107.77016273 155.42979342 107.76751296 149.50037363 107.74763921 143.57069035 C107.73696185 140.20433286 107.73849522 136.83929236 107.76065665 133.4729066 C107.9147994 108.45429178 104.10387553 84.67615146 91 63 C90.505 61.700625 90.505 61.700625 90 60.375 C89.17792978 58.00500204 89.17792978 58.00500204 87.625 56.625 C86 55 86 55 84.25 51.796875 C82.07317836 47.92796522 79.42252398 44.83224746 76.375 41.625 C75.85156006 41.06699707 75.32812012 40.50899414 74.78881836 39.93408203 C68.72292061 33.54225819 62.60585812 27.51000632 55 23 C54.071875 22.01 54.071875 22.01 53.125 21 C50.86060632 18.86880595 48.70563784 17.97579058 45.85986328 16.80322266 C43.10134192 15.61189484 40.51213609 14.12503659 37.875 12.6875 C26.13552057 6.57329 12.86182029 3.77003814 0 1 C0 0.67 0 0.34 0 0 Z " fill="#F0F0F0" transform="translate(885,33)"/>
<path d="M0 0 C1.79351243 2.69026865 2.42187402 4.10580197 3.1484375 7.1328125 C3.44596924 8.33502441 3.44596924 8.33502441 3.74951172 9.56152344 C4.05912842 10.83044434 4.05912842 10.83044434 4.375 12.125 C4.81751037 13.86336433 5.26535455 15.60038038 5.71875 17.3359375 C6.01942383 18.50455322 6.01942383 18.50455322 6.32617188 19.69677734 C7.4910627 23.67850924 9.14249912 27.30388808 11 31 C11.80603911 32.81611318 12.61202345 34.63225081 13.41723633 36.44873047 C19.17445038 49.23800389 27.26275113 59.04190631 37 69 C37.54575684 69.5671875 38.09151367 70.134375 38.65380859 70.71875 C46.61998287 78.91545665 54.49012082 84.5671058 64.9765625 89.11474609 C66.98362606 89.9928364 68.96016174 90.92040207 70.9375 91.86328125 C77.94310556 95.1465339 84.98702429 97.77892457 92.4375 99.875 C93.15856934 100.07826904 93.87963867 100.28153809 94.62255859 100.4909668 C103.85549612 102.94197309 112.98110179 103.14569394 122.49300194 103.12863445 C124.35493724 103.13126401 124.35493724 103.13126401 126.2544874 103.13394669 C129.69392395 103.13779169 133.1333069 103.13718076 136.57274118 103.13466892 C140.31693926 103.13303206 144.06113173 103.13717981 147.80532801 103.14057809 C154.36563208 103.14572733 160.92592877 103.14715012 167.48623466 103.14612198 C177.24173813 103.14459682 186.99723343 103.1487593 196.7527353 103.1539966 C215.18940064 103.16366793 233.6260632 103.16648075 252.06273077 103.16705366 C266.29869381 103.16751315 280.53465576 103.16957119 294.77061844 103.17275429 C298.86791662 103.17365182 302.96521481 103.17454164 307.06251299 103.17542917 C308.08109774 103.17565021 309.09968248 103.17587126 310.14913343 103.17609901 C338.79973638 103.18225316 367.45033896 103.18619957 396.10094261 103.18575573 C397.18114191 103.18574015 398.26134122 103.18572457 399.37427383 103.18570852 C404.84922633 103.18562541 410.32417882 103.18552637 415.79913132 103.18542381 C416.88648599 103.18540387 417.97384065 103.18538392 419.09414546 103.18536337 C421.29304061 103.18532294 423.49193576 103.18528114 425.6908309 103.18523798 C459.90977693 103.18462509 494.12871306 103.19213438 528.34765625 103.20581055 C566.7877617 103.22116742 605.22786064 103.22977703 643.66796935 103.22884732 C647.76589624 103.22877269 651.86382314 103.22872399 655.96175003 103.22869301 C657.4752843 103.22867553 657.4752843 103.22867553 659.01939502 103.22865769 C675.26370597 103.22862691 691.50800832 103.23501523 707.75231672 103.24362527 C724.07395535 103.25209747 740.39558139 103.25309508 756.71722101 103.24651595 C766.41528138 103.2428176 776.11330354 103.24466121 785.81135988 103.25445829 C792.28953589 103.26045009 798.76768417 103.25917174 805.2458589 103.25198779 C808.936738 103.24809957 812.62754306 103.24734998 816.318417 103.25544515 C820.29741949 103.2640958 824.27631073 103.2572272 828.25531578 103.24888897 C829.96727589 103.25634124 829.96727589 103.25634124 831.71382105 103.26394406 C837.86967875 103.23661817 843.60602073 102.71984188 849.63286976 101.44095703 C852.82055236 100.84714473 855.76831765 100.85636967 859 101 C859 101.33 859 101.66 859 102 C847.6719684 104.32241547 836.89522744 105.43945194 825.32763672 105.39872742 C823.72271061 105.40418368 822.1177885 105.41094213 820.5128727 105.41886932 C816.15361369 105.43671237 811.7945266 105.43635996 807.43523979 105.43273985 C802.7119669 105.43211111 797.98874931 105.44878469 793.26550293 105.46325684 C785.08802877 105.48597991 776.910597 105.49791814 768.73309326 105.50238609 C756.85674288 105.50888851 744.98046794 105.53190668 733.10414815 105.55872939 C713.76084907 105.60196544 694.41755317 105.63193564 675.07421875 105.65356445 C656.41534798 105.67445552 637.75650448 105.70167325 619.09765625 105.73754883 C617.95295105 105.73974765 616.80824584 105.74194648 615.62885261 105.74421193 C609.87859438 105.75529366 604.12833638 105.76649041 598.37807846 105.77772844 C558.33206675 105.85575584 518.28603052 105.92788152 478.23995972 105.96741772 C477.34044071 105.96830754 476.4409217 105.96919736 475.51414454 105.97011415 C471.99395075 105.97357103 468.47375695 105.97700949 464.95356297 105.98027844 C455.12310349 105.98949808 445.29270526 106.0044534 435.46227837 106.03163618 C430.72652063 106.04439819 425.99076031 106.05373823 421.25499344 106.06236422 C419.18912904 106.06709145 417.12326772 106.07356047 415.05741501 106.0819658 C412.34897443 106.09294833 409.64058768 106.09807092 406.93212891 106.10163879 C406.16841099 106.10643914 405.40469307 106.11123949 404.61783218 106.11618531 C401.26847808 106.11481 398.20134055 106.05058499 395 105 C394.67 106.32 394.34 107.64 394 109 C335.36284805 110.1208957 276.74951852 109.97910226 218.10496855 109.62664449 C205.83760582 109.55320998 193.57020209 109.48816566 181.30279016 109.42356598 C156.20180747 109.29121051 131.10088822 109.14914021 106 109 C106 108.34 106 107.68 106 107 C104.84113281 107.0309375 103.68226563 107.061875 102.48828125 107.09375 C98.26337096 107.08632974 94.29095648 106.48072511 90.1875 105.5 C89.46320801 105.32694336 88.73891602 105.15388672 87.99267578 104.97558594 C82.26338169 103.5092979 76.8266599 101.53227196 71.375 99.25 C70.30415161 98.80237305 70.30415161 98.80237305 69.21166992 98.34570312 C66.77977064 97.28427391 64.39283126 96.14686898 62 95 C60.89116455 94.50226074 59.7823291 94.00452148 58.63989258 93.49169922 C48.33709381 88.63707819 40.83562482 81.83049911 32.95336914 73.70117188 C30.92783899 71.61504999 28.8740138 69.56029061 26.81445312 67.5078125 C18.34522672 58.976035 11.45982094 50.94258918 7.375 39.4375 C5.66501744 34.75580019 3.81671621 30.21822149 1.69921875 25.70703125 C1 24 1 24 1 22 C2.32 22 3.64 22 5 22 C4.72285156 21.16597656 4.44570313 20.33195313 4.16015625 19.47265625 C2.05109376 12.92030197 0.46582281 6.87088645 0 0 Z " fill="#D1D1D1" transform="translate(40,822)"/>
<path d="M0 0 C0 0.33 0 0.66 0 1 C-6.32007115 2.37916807 -12.54146767 3.1752736 -19 3.5 C-28.61842527 3.97354207 -28.61842527 3.97354207 -38 6 C-38.33 6.66 -38.66 7.32 -39 8 C-41.62109375 8.52734375 -41.62109375 8.52734375 -45.4375 8.9375 C-46.50895264 9.05436157 -46.50895264 9.05436157 -47.60205078 9.17358398 C-59.07967835 10.38169469 -70.58786375 11.32487782 -82.0859375 12.31640625 C-82.77150223 12.37600021 -83.45706696 12.43559418 -84.16340637 12.49699402 C-87.25837098 12.76579293 -90.35352562 13.0283681 -93.45019531 13.27685547 C-94.94824707 13.40084717 -94.94824707 13.40084717 -96.4765625 13.52734375 C-97.76554443 13.62970337 -97.76554443 13.62970337 -99.08056641 13.73413086 C-101.00510602 13.80397225 -101.00510602 13.80397225 -102 15 C-104.0981793 15.21785512 -106.20301865 15.37205186 -108.30859375 15.5 C-110.26635742 15.62375 -110.26635742 15.62375 -112.26367188 15.75 C-113.65493096 15.83361599 -115.04620717 15.91694743 -116.4375 16 C-130.58873291 15.85425396 -130.58873291 15.85425396 -144 19 C-146.81594854 19.20794697 -149.61785111 19.37426834 -152.4375 19.5 C-158.30264963 19.70132605 -158.30264963 19.70132605 -164 21 C-165.32864813 21.18380585 -166.66280463 21.32955044 -167.9987793 21.44897461 C-168.80277664 21.52259216 -169.60677399 21.59620972 -170.43513489 21.67205811 C-171.30603256 21.74805237 -172.17693024 21.82404663 -173.07421875 21.90234375 C-173.98270065 21.98438049 -174.89118256 22.06641724 -175.82719421 22.15093994 C-178.78032766 22.41662814 -181.7338952 22.67710881 -184.6875 22.9375 C-186.70331132 23.11798245 -188.71909911 23.29872802 -190.73486328 23.47973633 C-202.20901271 24.50630651 -213.68494572 25.51436419 -225.1706543 26.40405273 C-229.50218988 26.74749501 -233.71311658 27.27380663 -238 28 C-248.66935626 28.95811292 -259.29612482 29.12810489 -270 29 C-270 28.67 -270 28.34 -270 28 C-272.31 27.34 -274.62 26.68 -277 26 C-277 25.67 -277 25.34 -277 25 C-273.31279807 24.70449174 -269.62523195 24.41381748 -265.9375 24.125 C-264.78604492 24.03476562 -263.63458984 23.94453125 -262.44824219 23.8515625 C-255.92242052 23.3494421 -249.39628355 22.88788503 -242.86328125 22.4921875 C-242.18607529 22.45070587 -241.50886932 22.40922424 -240.81114197 22.3664856 C-237.5201835 22.1655054 -234.22916675 21.97071835 -230.93725586 21.78564453 C-224.99917454 21.42780143 -219.15949457 20.92943168 -213.27734375 20.03125 C-203.66650292 18.57403982 -193.98629618 18.00530475 -184.29614258 17.32275391 C-176.12124021 16.74116549 -168.1182866 16.13742987 -160.07495117 14.51318359 C-152.20706225 13.20009884 -144.19249994 12.74499952 -136.25 12.0625 C-132.29929538 11.71692098 -128.34885579 11.36836634 -124.3984375 11.01953125 C-122.93333237 10.89087173 -122.93333237 10.89087173 -121.43862915 10.75961304 C-115.57143395 10.24080574 -109.71005728 9.68327702 -103.8515625 9.07421875 C-90.52207606 7.69353742 -77.40876523 6.50337907 -64 7 C-64 6.34 -64 5.68 -64 5 C-56.81493209 4.27966342 -49.62898622 3.56862055 -42.44238281 2.86376953 C-40.00207122 2.62335269 -37.56196156 2.38087636 -35.12207031 2.13623047 C-31.59752778 1.78319984 -28.07230467 1.43779487 -24.546875 1.09375 C-23.4713739 0.9843811 -22.3958728 0.87501221 -21.28778076 0.7623291 C-14.17024327 0.07735415 -7.14881636 -0.12587 0 0 Z " fill="#E3E3E3" transform="translate(652,401)"/>
<path d="M0 0 C0.33 0 0.66 0 1 0 C1.03025594 68.57369096 1.05059258 137.14738309 1.06185675 205.72107983 C1.06249808 209.61335182 1.0631569 213.50562382 1.06381607 217.39789581 C1.10196137 446.25033388 1.10196137 446.25033388 0.5 591 C0.49103943 592.77584772 0.49103943 592.77584772 0.48189783 594.58757114 C0.3412409 622.39183833 0.18551955 650.19599427 0 678 C-0.33 678 -0.66 678 -1 678 C-1 543.36 -1 408.72 -1 270 C-1.66 270 -2.32 270 -3 270 C-3 268.02 -3 266.04 -3 264 C-2.34 264 -1.68 264 -1 264 C-1.00092179 262.7913028 -1.00184359 261.58260561 -1.00279331 260.33728123 C-1.02453003 231.53654642 -1.04097974 202.73581177 -1.05106533 173.93507064 C-1.05231578 170.37720528 -1.05361013 166.81933994 -1.05493164 163.26147461 C-1.05519395 162.55327544 -1.05545626 161.84507627 -1.05572652 161.11541652 C-1.06005794 149.70271743 -1.06793134 138.29002346 -1.0771528 126.87732739 C-1.08656007 115.13524813 -1.09207046 103.39317153 -1.09408849 91.65108865 C-1.09532817 85.06908043 -1.09839476 78.48708166 -1.10573006 71.90507698 C-1.11260006 65.68925943 -1.11459502 59.47345801 -1.11310768 53.25763702 C-1.11337914 50.9960439 -1.11531831 48.73445014 -1.11920547 46.47286034 C-1.14452653 30.9583431 -0.73338312 15.49737655 0 0 Z " fill="#727272" transform="translate(39,136)"/>
<path d="M0 0 C0.33 0 0.66 0 1 0 C1.33 153.12 1.66 306.24 2 464 C1.505 462.515 1.505 462.515 1 461 C0.34 461 -0.32 461 -1 461 C-1.02286832 402.70457315 -1.04050124 344.40914663 -1.05106533 286.1137162 C-1.05231271 279.23783878 -1.05360925 272.36196138 -1.05493164 265.48608398 C-1.0550624 264.80183831 -1.05519316 264.11759263 -1.05532788 263.41261224 C-1.05959199 241.2197515 -1.06710535 219.02689329 -1.07629722 196.83403409 C-1.08599006 173.38914239 -1.09199429 149.94425281 -1.09408849 126.49935895 C-1.09546343 112.44824862 -1.09981243 98.39714558 -1.10791647 84.34603748 C-1.11318566 74.72227076 -1.1148039 65.09850782 -1.11350138 55.47473975 C-1.11285827 49.91500653 -1.11387245 44.35528609 -1.11920547 38.79555511 C-1.1240461 33.71227961 -1.12433423 28.62902556 -1.12089889 23.54574911 C-1.12047386 21.70048543 -1.12176401 19.85522045 -1.12488318 18.00995936 C-1.12885928 15.51391257 -1.12675571 13.01794464 -1.12304783 10.52189922 C-1.12567484 9.79499005 -1.12830186 9.06808088 -1.13100848 8.31914416 C-1.12065608 5.26382492 -0.9746107 2.92383209 0 0 Z " fill="#B1B1B1" transform="translate(232,267)"/>
<path d="M0 0 C0 0.33 0 0.66 0 1 C-6.32007115 2.37916807 -12.54146767 3.1752736 -19 3.5 C-28.61842527 3.97354207 -28.61842527 3.97354207 -38 6 C-38.33 6.66 -38.66 7.32 -39 8 C-41.50183575 8.46966978 -43.91129314 8.80484304 -46.4375 9.0625 C-47.18507568 9.14483887 -47.93265137 9.22717773 -48.70288086 9.31201172 C-57.11498401 10.19400323 -65.55250444 10.62455575 -74 11 C-74.33 9.68 -74.66 8.36 -75 7 C-71.37 7 -67.74 7 -64 7 C-64 6.34 -64 5.68 -64 5 C-56.81493209 4.27966342 -49.62898622 3.56862055 -42.44238281 2.86376953 C-40.00207122 2.62335269 -37.56196156 2.38087636 -35.12207031 2.13623047 C-31.59752778 1.78319984 -28.07230467 1.43779487 -24.546875 1.09375 C-23.4713739 0.9843811 -22.3958728 0.87501221 -21.28778076 0.7623291 C-14.17024327 0.07735415 -7.14881636 -0.12587 0 0 Z " fill="#E1E1E1" transform="translate(652,401)"/>
<path d="M0 0 C0 23.90866557 -0.13310338 47.81796646 -0.23571491 71.72636032 C-0.280699 82.2980322 -0.32011604 92.86967006 -0.34643555 103.44140625 C-0.36941362 112.66553166 -0.4028052 121.88955053 -0.44870156 131.11359143 C-0.47262756 135.99477799 -0.4913607 140.87585911 -0.49761391 145.75710297 C-0.50366341 150.35034955 -0.52365849 154.94332582 -0.55427551 159.53647232 C-0.56305639 161.22025043 -0.56677821 162.90406385 -0.56500816 164.58786392 C-0.5633516 166.89114202 -0.58008605 169.19359979 -0.60127258 171.49676514 C-0.60588155 172.78430065 -0.61049051 174.07183617 -0.61523914 175.39838791 C-1.05844489 179.5470822 -2.18559743 182.2716987 -4 186 C-5 183 -5 183 -4.07906342 179.77712727 C-2.9551659 175.84306381 -2.74438127 172.64735302 -2.73498535 168.56596375 C-2.72841345 167.49330182 -2.72841345 167.49330182 -2.72170877 166.39896995 C-2.70946044 164.0207164 -2.71119191 161.64268557 -2.71289062 159.2644043 C-2.70686215 157.55234961 -2.69993682 155.84029787 -2.69218445 154.12825012 C-2.67732965 150.45113446 -2.66855498 146.77407279 -2.66447449 143.09692955 C-2.65775114 137.28631047 -2.63598801 131.47580707 -2.61193848 125.66523743 C-2.55886354 112.28948393 -2.52539042 98.9136949 -2.49217987 85.53787994 C-2.46151779 73.26362127 -2.42675359 60.98941252 -2.37586927 48.71521884 C-2.35247625 42.93449265 -2.33876908 37.1538476 -2.33237457 31.3730787 C-2.32645495 27.78602338 -2.31237628 24.19903438 -2.29603004 20.61201286 C-2.2901328 18.94385892 -2.2876862 17.27568882 -2.28886986 15.60752487 C-2.29002163 13.33791349 -2.27907296 11.06867847 -2.26501465 8.79911804 C-2.26208153 7.52691752 -2.25914841 6.25471701 -2.2561264 4.94396496 C-2 2 -2 2 0 0 Z " fill="#838383" transform="translate(374,550)"/>
<path d="M0 0 C0.33 0 0.66 0 1 0 C1.06963455 9.39708544 1.12287941 18.79408151 1.15543652 28.19136906 C1.17106549 32.55532535 1.19225292 36.91910458 1.22631836 41.28295898 C1.25901093 45.49751453 1.27687383 49.71190019 1.28463173 53.9265728 C1.29015752 55.53127146 1.30094803 57.13596126 1.31719017 58.74058723 C1.33909662 60.9953097 1.3419615 63.24933794 1.34057617 65.50415039 C1.34723801 66.78544327 1.35389984 68.06673615 1.36076355 69.38685608 C0.94423869 73.55846451 -0.17404866 76.25661981 -2 80 C-3.32465752 76.02602745 -2.14821269 73.99252287 -1 70 C-0.80888121 67.5984275 -0.70729003 65.1885644 -0.68115234 62.77954102 C-0.67110672 62.09576889 -0.6610611 61.41199677 -0.65071106 60.70750427 C-0.62010091 58.47297927 -0.60290656 56.23857281 -0.5859375 54.00390625 C-0.56720793 52.44448339 -0.54763321 50.88507048 -0.5272522 49.32566833 C-0.47611372 45.24050787 -0.4363907 41.15531461 -0.39910889 37.07000732 C-0.35895401 32.89359548 -0.30791429 28.71731789 -0.2578125 24.54101562 C-0.16126997 16.36076909 -0.07679652 8.18045563 0 0 Z " fill="#9A9A9A" transform="translate(372,656)"/>
<path d="M0 0 C-0.33 0.66 -0.66 1.32 -1 2 C-3.83290499 2.48667085 -6.58250344 2.84903971 -9.4375 3.125 C-10.25412109 3.2084668 -11.07074219 3.29193359 -11.91210938 3.37792969 C-24.82242494 4.63409621 -24.82242494 4.63409621 -29 4 C-29.66 3.34 -30.32 2.68 -31 2 C-20.58244479 -0.06142435 -10.57691426 -0.21367504 0 0 Z " fill="#FBFBFB" transform="translate(643,404)"/>
<path d="M0 0 C0 0.33 0 0.66 0 1 C-14.18624525 4.09572725 -28.55207751 4.17291397 -43 4 C-43 3.67 -43 3.34 -43 3 C-38.80560759 2.56498026 -34.61047947 2.13814022 -30.41455078 1.71826172 C-28.99278344 1.57489831 -27.57122396 1.42945527 -26.14990234 1.28173828 C-17.41579729 0.37565963 -8.79343724 -0.22579439 0 0 Z " fill="#8E8E8E" transform="translate(652,401)"/>
<path d="M0 0 C0 0.33 0 0.66 0 1 C-6.7831364 2.42002108 -13.06697907 3.22731216 -20 3 C-20 2.67 -20 2.34 -20 2 C-13.24112575 -0.07965362 -7.04440079 -0.21133202 0 0 Z " fill="#A9A9A9" transform="translate(652,401)"/>
<path d="M0 0 C2.96404505 2.80804268 5.44499019 5.18315774 7 9 C6.01 9 5.02 9 4 9 C0 2.25 0 2.25 0 0 Z " fill="#AEAEAE" transform="translate(669,695)"/>
</svg>
