<?xml version="1.0" encoding="UTF-8"?>
<svg version="1.1" xmlns="http://www.w3.org/2000/svg" width="1000" height="1000">
<path d="M0 0 C3.65068517 0.0033008 7.30134828 -0.00504392 10.95202612 -0.01181835 C17.33582017 -0.02207351 23.71958391 -0.02497 30.10338538 -0.02290613 C39.59645525 -0.01984458 49.08949182 -0.02820531 58.5825552 -0.03865538 C76.52455178 -0.05795564 94.4665369 -0.06362202 112.40854265 -0.06476949 C126.262425 -0.06568972 140.11630288 -0.06981233 153.97018378 -0.07617074 C157.96254113 -0.07796589 161.95489849 -0.07974552 165.94725584 -0.0815205 C166.93983327 -0.0819626 167.93241069 -0.08240469 168.95506622 -0.08286019 C196.85620057 -0.09516049 224.75733338 -0.10306209 252.65847056 -0.10217363 C253.7094746 -0.10214247 254.76047864 -0.10211131 255.84333128 -0.10207921 C261.16991539 -0.101913 266.49649949 -0.10171492 271.8230836 -0.1015098 C272.88091304 -0.10146991 273.93874248 -0.10143002 275.02862736 -0.10138892 C277.16781076 -0.10130804 279.30699416 -0.10122445 281.44617757 -0.10113813 C314.74675575 -0.09991195 348.04729325 -0.11494152 381.34785979 -0.14228326 C418.78201058 -0.17300646 456.21613463 -0.19021577 493.65029883 -0.18835682 C497.64171312 -0.18820756 501.6331274 -0.18811015 505.62454169 -0.18804819 C506.60729356 -0.18802488 507.59004542 -0.18800157 508.60257765 -0.18797755 C524.41070612 -0.18791603 540.21879921 -0.20068181 556.02691716 -0.21791271 C571.91076244 -0.23486829 587.79455598 -0.23684345 603.6784053 -0.22369407 C613.11152731 -0.21630577 622.54449208 -0.2199595 631.97759741 -0.23957875 C638.28271927 -0.25158352 644.58772732 -0.2489822 650.89284397 -0.23463776 C654.48234575 -0.22687923 658.07154338 -0.22530973 661.66102363 -0.24155246 C689.00559059 -0.35769255 689.00559059 -0.35769255 700.09663909 4.26933783 C700.09663909 4.92933783 700.09663909 5.58933783 700.09663909 6.26933783 C701.58163909 6.42402533 701.58163909 6.42402533 703.09663909 6.58183783 C707.4211961 7.20845732 711.10544317 8.48018104 715.09663909 10.26933783 C715.42663909 11.25933783 715.75663909 12.24933783 716.09663909 13.26933783 C718.07663909 13.59933783 720.05663909 13.92933783 722.09663909 14.26933783 C722.42663909 15.25933783 722.75663909 16.24933783 723.09663909 17.26933783 C724.08663909 17.59933783 725.07663909 17.92933783 726.09663909 18.26933783 C726.09663909 18.92933783 726.09663909 19.58933783 726.09663909 20.26933783 C726.88038909 20.37246283 727.66413909 20.47558783 728.47163909 20.58183783 C731.09663909 21.26933783 731.09663909 21.26933783 733.09663909 24.26933783 C734.08663909 24.59933783 735.07663909 24.92933783 736.09663909 25.26933783 C738.28413909 27.20683783 738.28413909 27.20683783 740.09663909 29.26933783 C740.09663909 29.92933783 740.09663909 30.58933783 740.09663909 31.26933783 C740.69476409 31.53746283 741.29288909 31.80558783 741.90913909 32.08183783 C744.11482942 33.27921258 745.53247096 34.31412767 747.09663909 36.26933783 C747.09663909 37.25933783 747.09663909 38.24933783 747.09663909 39.26933783 C748.08663909 39.26933783 749.07663909 39.26933783 750.09663909 39.26933783 C752.45844009 40.99526933 753.03623911 41.91556654 753.53413909 44.83183783 C753.83651288 47.44251578 753.83651288 47.44251578 756.15913909 48.58183783 C757.11820159 48.92215033 757.11820159 48.92215033 758.09663909 49.26933783 C758.09663909 50.25933783 758.09663909 51.24933783 758.09663909 52.26933783 C758.75663909 52.26933783 759.41663909 52.26933783 760.09663909 52.26933783 C760.42663909 53.25933783 760.75663909 54.24933783 761.09663909 55.26933783 C762.08663909 55.92933783 763.07663909 56.58933783 764.09663909 57.26933783 C764.60835784 59.43340033 764.60835784 59.43340033 764.78413909 61.89433783 C764.84988128 62.71160346 764.91562347 63.52886908 764.98335784 64.37090033 C765.03943206 65.31062689 765.03943206 65.31062689 765.09663909 66.26933783 C766.08663909 66.26933783 767.07663909 66.26933783 768.09663909 66.26933783 C772.68889422 78.75453145 772.68889422 78.75453145 772.09663909 85.26933783 C772.75663909 85.26933783 773.41663909 85.26933783 774.09663909 85.26933783 C774.09663909 86.58933783 774.09663909 87.90933783 774.09663909 89.26933783 C774.75663909 89.26933783 775.41663909 89.26933783 776.09663909 89.26933783 C779.14367705 95.97282135 779.24344002 102.82015399 779.21689361 110.04556769 C779.21774803 110.90501111 779.21860246 111.76445452 779.21948277 112.64994168 C779.22112384 115.51650345 779.21563876 118.3830061 779.21016448 121.24956244 C779.20988229 123.30968206 779.21004097 125.36980177 779.21060699 127.42992133 C779.2108937 133.01404829 779.20501724 138.59815374 779.19803303 144.18227571 C779.19177861 150.02123692 779.19119404 155.86019862 779.19000762 161.69916266 C779.18690047 172.75225769 779.17869537 183.80534281 779.16865813 194.85843348 C779.15747788 207.44360293 779.15198172 220.02877284 779.1469627 232.61394602 C779.13651226 258.49908211 779.11892473 284.38420942 779.09663909 310.26933783 C780.08663909 310.26933783 781.07663909 310.26933783 782.09663909 310.26933783 C782.09663909 339.96933783 782.09663909 369.66933783 782.09663909 400.26933783 C780.77663909 400.26933783 779.45663909 400.26933783 778.09663909 400.26933783 C778.09940447 402.23907081 778.09940447 402.23907081 778.10222571 404.24859637 C778.1461442 435.8717251 778.17881365 467.49484541 778.19876975 499.1179978 C778.20126928 503.06419649 778.20385811 507.0103951 778.20650237 510.95659369 C778.2072893 512.13434809 778.2072893 512.13434809 778.20809213 513.33589551 C778.21559541 524.29018655 778.22787617 535.2444628 778.24410989 546.19874425 C778.42598977 669.03833928 778.42598977 669.03833928 777.27700704 718.31935638 C777.21460049 721.00555762 777.15491991 723.69180998 777.09545272 726.37807768 C777.00337284 730.4563469 776.90001404 734.5341634 776.78596108 738.61187643 C776.74620367 740.05801247 776.7089849 741.50422117 776.67465108 742.95049614 C776.50220496 750.0067146 776.19446567 756.5059612 774.09663909 763.26933783 C773.43663909 763.26933783 772.77663909 763.26933783 772.09663909 763.26933783 C772.15851409 764.90902533 772.15851409 764.90902533 772.22163909 766.58183783 C772.09663909 770.26933783 772.09663909 770.26933783 770.09663909 773.26933783 C769.65925213 774.98378672 769.28815221 776.71601567 768.97163909 778.45683783 C768.80406097 779.35789252 768.63648284 780.25894721 768.46382659 781.18730658 C768.34265472 781.87437689 768.22148284 782.56144721 768.09663909 783.26933783 C767.10663909 783.59933783 766.11663909 783.92933783 765.09663909 784.26933783 C764.95226409 785.07371283 764.80788909 785.87808783 764.65913909 786.70683783 C764.09663909 789.26933783 764.09663909 789.26933783 763.09663909 790.26933783 C762.69670223 792.95796447 762.34529367 795.63286 762.03413909 798.33183783 C761.94326018 799.09045111 761.85238128 799.84906439 761.75874847 800.63066596 C761.53420169 802.50976793 761.31492931 804.38949878 761.09663909 806.26933783 C759.77663909 806.26933783 758.45663909 806.26933783 757.09663909 806.26933783 C757.09663909 807.25933783 757.09663909 808.24933783 757.09663909 809.26933783 C756.10663909 809.26933783 755.11663909 809.26933783 754.09663909 809.26933783 C754.09663909 810.58933783 754.09663909 811.90933783 754.09663909 813.26933783 C752.77663909 813.26933783 751.45663909 813.26933783 750.09663909 813.26933783 C750.09663909 814.25933783 750.09663909 815.24933783 750.09663909 816.26933783 C747.78663909 816.26933783 745.47663909 816.26933783 743.09663909 816.26933783 C743.09663909 817.58933783 743.09663909 818.90933783 743.09663909 820.26933783 C742.10663909 820.26933783 741.11663909 820.26933783 740.09663909 820.26933783 C740.09663909 821.25933783 740.09663909 822.24933783 740.09663909 823.26933783 C738.77663909 823.26933783 737.45663909 823.26933783 736.09663909 823.26933783 C736.09663909 825.57933783 736.09663909 827.88933783 736.09663909 830.26933783 C735.10663909 830.26933783 734.11663909 830.26933783 733.09663909 830.26933783 C733.09663909 831.58933783 733.09663909 832.90933783 733.09663909 834.26933783 C731.77663909 834.26933783 730.45663909 834.26933783 729.09663909 834.26933783 C729.09663909 835.25933783 729.09663909 836.24933783 729.09663909 837.26933783 C726.78663909 837.26933783 724.47663909 837.26933783 722.09663909 837.26933783 C722.09663909 838.58933783 722.09663909 839.90933783 722.09663909 841.26933783 C719.78663909 841.26933783 717.47663909 841.26933783 715.09663909 841.26933783 C715.09663909 842.58933783 715.09663909 843.90933783 715.09663909 845.26933783 C712.78663909 845.26933783 710.47663909 845.26933783 708.09663909 845.26933783 C708.09663909 846.25933783 708.09663909 847.24933783 708.09663909 848.26933783 C703.47663909 848.26933783 698.85663909 848.26933783 694.09663909 848.26933783 C694.09663909 849.58933783 694.09663909 850.90933783 694.09663909 852.26933783 C691.78663909 852.26933783 689.47663909 852.26933783 687.09663909 852.26933783 C687.09663909 853.25933783 687.09663909 854.24933783 687.09663909 855.26933783 C447.84663909 855.26933783 208.59663909 855.26933783 -37.90336091 855.26933783 C-37.90336091 852.95933783 -37.90336091 850.64933783 -37.90336091 848.26933783 C-44.83336091 848.26933783 -51.76336091 848.26933783 -58.90336091 848.26933783 C-58.90336091 847.27933783 -58.90336091 846.28933783 -58.90336091 845.26933783 C-61.54336091 845.26933783 -64.18336091 845.26933783 -66.90336091 845.26933783 C-66.90336091 843.94933783 -66.90336091 842.62933783 -66.90336091 841.26933783 C-69.21336091 841.26933783 -71.52336091 841.26933783 -73.90336091 841.26933783 C-73.90336091 839.94933783 -73.90336091 838.62933783 -73.90336091 837.26933783 C-74.89336091 837.26933783 -75.88336091 837.26933783 -76.90336091 837.26933783 C-76.90336091 836.27933783 -76.90336091 835.28933783 -76.90336091 834.26933783 C-78.22336091 834.26933783 -79.54336091 834.26933783 -80.90336091 834.26933783 C-80.90336091 832.94933783 -80.90336091 831.62933783 -80.90336091 830.26933783 C-81.89336091 830.26933783 -82.88336091 830.26933783 -83.90336091 830.26933783 C-83.90336091 829.27933783 -83.90336091 828.28933783 -83.90336091 827.26933783 C-85.22336091 827.26933783 -86.54336091 827.26933783 -87.90336091 827.26933783 C-87.90336091 825.94933783 -87.90336091 824.62933783 -87.90336091 823.26933783 C-88.89336091 823.26933783 -89.88336091 823.26933783 -90.90336091 823.26933783 C-90.90336091 822.27933783 -90.90336091 821.28933783 -90.90336091 820.26933783 C-92.22336091 820.26933783 -93.54336091 820.26933783 -94.90336091 820.26933783 C-94.90336091 818.94933783 -94.90336091 817.62933783 -94.90336091 816.26933783 C-95.89336091 816.26933783 -96.88336091 816.26933783 -97.90336091 816.26933783 C-97.90336091 815.27933783 -97.90336091 814.28933783 -97.90336091 813.26933783 C-99.22336091 813.26933783 -100.54336091 813.26933783 -101.90336091 813.26933783 C-101.90336091 811.94933783 -101.90336091 810.62933783 -101.90336091 809.26933783 C-102.89336091 809.26933783 -103.88336091 809.26933783 -104.90336091 809.26933783 C-104.90336091 808.27933783 -104.90336091 807.28933783 -104.90336091 806.26933783 C-106.22336091 806.26933783 -107.54336091 806.26933783 -108.90336091 806.26933783 C-108.90336091 804.94933783 -108.90336091 803.62933783 -108.90336091 802.26933783 C-109.89336091 802.26933783 -110.88336091 802.26933783 -111.90336091 802.26933783 C-111.90336091 799.95933783 -111.90336091 797.64933783 -111.90336091 795.26933783 C-113.22336091 795.26933783 -114.54336091 795.26933783 -115.90336091 795.26933783 C-115.90336091 794.27933783 -115.90336091 793.28933783 -115.90336091 792.26933783 C-117.22336091 792.26933783 -118.54336091 792.26933783 -119.90336091 792.26933783 C-119.90336091 789.62933783 -119.90336091 786.98933783 -119.90336091 784.26933783 C-120.89336091 784.26933783 -121.88336091 784.26933783 -122.90336091 784.26933783 C-122.90336091 779.64933783 -122.90336091 775.02933783 -122.90336091 770.26933783 C-124.22336091 770.26933783 -125.54336091 770.26933783 -126.90336091 770.26933783 C-126.90336091 767.62933783 -126.90336091 764.98933783 -126.90336091 762.26933783 C-128.22336091 762.26933783 -129.54336091 762.26933783 -130.90336091 762.26933783 C-130.90336091 761.60933783 -130.90336091 760.94933783 -130.90336091 760.26933783 C-129.58336091 760.26933783 -128.26336091 760.26933783 -126.90336091 760.26933783 C-126.90374063 759.32522217 -126.90412035 758.38110651 -126.90451158 757.40838128 C-126.92734826 700.38770195 -126.94425221 643.36702273 -126.95442624 586.34633974 C-126.9556722 579.37112816 -126.95696895 572.39591659 -126.95829255 565.42070502 C-126.95848869 564.3802269 -126.95848869 564.3802269 -126.95868879 563.31872902 C-126.96247266 543.35847192 -126.96863493 523.39821702 -126.97709738 503.43796137 C-127.06770482 289.61085839 -127.06770482 289.61085839 -126.56615729 176.31327144 C-126.5330757 168.85544811 -126.50467122 161.39761653 -126.47820718 153.93976706 C-126.4464119 145.04761818 -126.40728914 136.15553933 -126.35808539 127.26346901 C-126.33337609 122.7850721 -126.31159574 118.30671661 -126.29809696 113.82827061 C-126.28566991 109.76451853 -126.26407114 105.70092621 -126.23483217 101.63726125 C-126.22586496 100.17008727 -126.22027077 98.70288818 -126.21830673 97.2356881 C-126.21514386 95.2554718 -126.19866839 93.27528982 -126.18141324 91.29514617 C-126.17596366 90.19540288 -126.17051408 89.09565959 -126.16489936 87.96259075 C-125.90336091 85.26933783 -125.90336091 85.26933783 -123.90336091 82.26933783 C-123.24336091 82.26933783 -122.58336091 82.26933783 -121.90336091 82.26933783 C-121.90336091 80.61933783 -121.90336091 78.96933783 -121.90336091 77.26933783 C-121.24336091 77.26933783 -120.58336091 77.26933783 -119.90336091 77.26933783 C-119.91496247 76.64285346 -119.92656403 76.01636908 -119.93851716 75.37090033 C-119.9475406 74.55363471 -119.95656403 73.73636908 -119.96586091 72.89433783 C-119.97746247 72.08222846 -119.98906403 71.27011908 -120.00101716 70.43340033 C-119.90336091 68.26933783 -119.90336091 68.26933783 -118.90336091 66.26933783 C-118.24336091 66.26933783 -117.58336091 66.26933783 -116.90336091 66.26933783 C-116.57336091 64.61933783 -116.24336091 62.96933783 -115.90336091 61.26933783 C-114.41836091 60.77433783 -114.41836091 60.77433783 -112.90336091 60.26933783 C-112.57336091 58.61933783 -112.24336091 56.96933783 -111.90336091 55.26933783 C-110.41836091 54.77433783 -110.41836091 54.77433783 -108.90336091 54.26933783 C-108.57336091 52.61933783 -108.24336091 50.96933783 -107.90336091 49.26933783 C-107.24336091 49.26933783 -106.58336091 49.26933783 -105.90336091 49.26933783 C-105.67648591 48.36183783 -105.44961091 47.45433783 -105.21586091 46.51933783 C-103.70050761 42.76703441 -102.08495979 41.65553699 -98.90336091 39.26933783 C-98.59398591 38.60933783 -98.28461091 37.94933783 -97.96586091 37.26933783 C-96.36390777 34.25389662 -93.74225708 33.08623138 -90.90336091 31.26933783 C-90.16086091 30.52683783 -89.41836091 29.78433783 -88.65336091 29.01933783 C-88.07586091 28.44183783 -87.49836091 27.86433783 -86.90336091 27.26933783 C-86.24336091 27.26933783 -85.58336091 27.26933783 -84.90336091 27.26933783 C-84.40836091 25.78433783 -84.40836091 25.78433783 -83.90336091 24.26933783 C-82.91336091 24.26933783 -81.92336091 24.26933783 -80.90336091 24.26933783 C-80.40836091 22.78433783 -80.40836091 22.78433783 -79.90336091 21.26933783 C-77.24252122 19.27537526 -74.29093766 17.26933783 -70.90336091 17.26933783 C-70.90336091 16.27933783 -70.90336091 15.28933783 -70.90336091 14.26933783 C-67.43836091 13.77433783 -67.43836091 13.77433783 -63.90336091 13.26933783 C-63.57336091 12.27933783 -63.24336091 11.28933783 -62.90336091 10.26933783 C-58.47664845 6.55661125 -53.43600226 6.58088463 -47.90336091 6.26933783 C-47.90336091 5.60933783 -47.90336091 4.94933783 -47.90336091 4.26933783 C-35.34825656 -3.19035159 -13.9971721 -0.0211951 0 0 Z M482.09663909 145.26933783 C482.09663909 146.58933783 482.09663909 147.90933783 482.09663909 149.26933783 C480.77663909 149.26933783 479.45663909 149.26933783 478.09663909 149.26933783 C478.09663909 150.25933783 478.09663909 151.24933783 478.09663909 152.26933783 C477.10663909 152.26933783 476.11663909 152.26933783 475.09663909 152.26933783 C475.09663909 153.58933783 475.09663909 154.90933783 475.09663909 156.26933783 C473.77663909 156.26933783 472.45663909 156.26933783 471.09663909 156.26933783 C471.09663909 157.25933783 471.09663909 158.24933783 471.09663909 159.26933783 C470.10663909 159.26933783 469.11663909 159.26933783 468.09663909 159.26933783 C468.09663909 161.57933783 468.09663909 163.88933783 468.09663909 166.26933783 C466.77663909 166.26933783 465.45663909 166.26933783 464.09663909 166.26933783 C464.09663909 168.57933783 464.09663909 170.88933783 464.09663909 173.26933783 C463.10663909 173.26933783 462.11663909 173.26933783 461.09663909 173.26933783 C461.09663909 230.68933783 461.09663909 288.10933783 461.09663909 347.26933783 C444.59663909 347.26933783 428.09663909 347.26933783 411.09663909 347.26933783 C411.09663909 348.25933783 411.09663909 349.24933783 411.09663909 350.26933783 C398.22663909 350.26933783 385.35663909 350.26933783 372.09663909 350.26933783 C372.09663909 351.58933783 372.09663909 352.90933783 372.09663909 354.26933783 C364.17663909 354.26933783 356.25663909 354.26933783 348.09663909 354.26933783 C348.09663909 355.25933783 348.09663909 356.24933783 348.09663909 357.26933783 C332.91663909 357.26933783 317.73663909 357.26933783 302.09663909 357.26933783 C302.09663909 358.58933783 302.09663909 359.90933783 302.09663909 361.26933783 C300.77663909 361.26933783 299.45663909 361.26933783 298.09663909 361.26933783 C298.09663909 362.25933783 298.09663909 363.24933783 298.09663909 364.26933783 C284.23663909 364.26933783 270.37663909 364.26933783 256.09663909 364.26933783 C256.09663909 365.58933783 256.09663909 366.90933783 256.09663909 368.26933783 C231.34663909 368.26933783 206.59663909 368.26933783 181.09663909 368.26933783 C181.09663909 319.09933783 181.09663909 269.92933783 181.09663909 219.26933783 C179.77663909 219.26933783 178.45663909 219.26933783 177.09663909 219.26933783 C177.09663909 216.95933783 177.09663909 214.64933783 177.09663909 212.26933783 C176.10663909 212.26933783 175.11663909 212.26933783 174.09663909 212.26933783 C174.09663909 211.27933783 174.09663909 210.28933783 174.09663909 209.26933783 C172.77663909 209.26933783 171.45663909 209.26933783 170.09663909 209.26933783 C170.09663909 207.94933783 170.09663909 206.62933783 170.09663909 205.26933783 C169.10663909 205.26933783 168.11663909 205.26933783 167.09663909 205.26933783 C167.09663909 204.27933783 167.09663909 203.28933783 167.09663909 202.26933783 C165.77663909 202.26933783 164.45663909 202.26933783 163.09663909 202.26933783 C163.09663909 200.94933783 163.09663909 199.62933783 163.09663909 198.26933783 C162.10663909 198.26933783 161.11663909 198.26933783 160.09663909 198.26933783 C160.09663909 197.27933783 160.09663909 196.28933783 160.09663909 195.26933783 C158.77663909 195.26933783 157.45663909 195.26933783 156.09663909 195.26933783 C156.09663909 193.94933783 156.09663909 192.62933783 156.09663909 191.26933783 C153.78663909 191.26933783 151.47663909 191.26933783 149.09663909 191.26933783 C149.09663909 190.27933783 149.09663909 189.28933783 149.09663909 188.26933783 C119.06663909 188.26933783 89.03663909 188.26933783 58.09663909 188.26933783 C58.09663909 189.25933783 58.09663909 190.24933783 58.09663909 191.26933783 C56.77663909 191.26933783 55.45663909 191.26933783 54.09663909 191.26933783 C54.09663909 192.58933783 54.09663909 193.90933783 54.09663909 195.26933783 C53.10663909 195.26933783 52.11663909 195.26933783 51.09663909 195.26933783 C51.09663909 196.25933783 51.09663909 197.24933783 51.09663909 198.26933783 C49.77663909 198.26933783 48.45663909 198.26933783 47.09663909 198.26933783 C47.09663909 199.58933783 47.09663909 200.90933783 47.09663909 202.26933783 C46.10663909 202.26933783 45.11663909 202.26933783 44.09663909 202.26933783 C44.09663909 203.25933783 44.09663909 204.24933783 44.09663909 205.26933783 C42.77663909 205.26933783 41.45663909 205.26933783 40.09663909 205.26933783 C40.09663909 207.57933783 40.09663909 209.88933783 40.09663909 212.26933783 C39.10663909 212.26933783 38.11663909 212.26933783 37.09663909 212.26933783 C37.09663909 214.57933783 37.09663909 216.88933783 37.09663909 219.26933783 C35.77663909 219.26933783 34.45663909 219.26933783 33.09663909 219.26933783 C33.09663909 367.10933783 33.09663909 514.94933783 33.09663909 667.26933783 C34.41663909 667.26933783 35.73663909 667.26933783 37.09663909 667.26933783 C37.09663909 670.89933783 37.09663909 674.52933783 37.09663909 678.26933783 C38.08663909 678.26933783 39.07663909 678.26933783 40.09663909 678.26933783 C40.09663909 679.25933783 40.09663909 680.24933783 40.09663909 681.26933783 C41.41663909 681.26933783 42.73663909 681.26933783 44.09663909 681.26933783 C44.09663909 682.58933783 44.09663909 683.90933783 44.09663909 685.26933783 C45.08663909 685.26933783 46.07663909 685.26933783 47.09663909 685.26933783 C47.09663909 686.25933783 47.09663909 687.24933783 47.09663909 688.26933783 C48.41663909 688.26933783 49.73663909 688.26933783 51.09663909 688.26933783 C51.09663909 689.58933783 51.09663909 690.90933783 51.09663909 692.26933783 C52.08663909 692.26933783 53.07663909 692.26933783 54.09663909 692.26933783 C54.09663909 693.25933783 54.09663909 694.24933783 54.09663909 695.26933783 C55.41663909 695.26933783 56.73663909 695.26933783 58.09663909 695.26933783 C58.09663909 696.58933783 58.09663909 697.90933783 58.09663909 699.26933783 C89.11663909 699.26933783 120.13663909 699.26933783 152.09663909 699.26933783 C152.09663909 697.94933783 152.09663909 696.62933783 152.09663909 695.26933783 C154.73663909 695.26933783 157.37663909 695.26933783 160.09663909 695.26933783 C160.09663909 694.27933783 160.09663909 693.28933783 160.09663909 692.26933783 C161.08663909 692.26933783 162.07663909 692.26933783 163.09663909 692.26933783 C163.09663909 690.94933783 163.09663909 689.62933783 163.09663909 688.26933783 C164.41663909 688.26933783 165.73663909 688.26933783 167.09663909 688.26933783 C167.09663909 687.27933783 167.09663909 686.28933783 167.09663909 685.26933783 C168.08663909 685.26933783 169.07663909 685.26933783 170.09663909 685.26933783 C170.09663909 683.94933783 170.09663909 682.62933783 170.09663909 681.26933783 C171.41663909 681.26933783 172.73663909 681.26933783 174.09663909 681.26933783 C174.09663909 678.95933783 174.09663909 676.64933783 174.09663909 674.26933783 C175.08663909 674.26933783 176.07663909 674.26933783 177.09663909 674.26933783 C177.09663909 614.86933783 177.09663909 555.46933783 177.09663909 494.26933783 C178.41663909 494.26933783 179.73663909 494.26933783 181.09663909 494.26933783 C181.09663909 492.94933783 181.09663909 491.62933783 181.09663909 490.26933783 C196.27663909 490.26933783 211.45663909 490.26933783 227.09663909 490.26933783 C227.09663909 489.27933783 227.09663909 488.28933783 227.09663909 487.26933783 C243.26663909 487.26933783 259.43663909 487.26933783 276.09663909 487.26933783 C276.09663909 485.94933783 276.09663909 484.62933783 276.09663909 483.26933783 C292.59663909 483.26933783 309.09663909 483.26933783 326.09663909 483.26933783 C326.09663909 482.27933783 326.09663909 481.28933783 326.09663909 480.26933783 C333.02663909 480.26933783 339.95663909 480.26933783 347.09663909 480.26933783 C347.09663909 478.94933783 347.09663909 477.62933783 347.09663909 476.26933783 C358.64663909 476.26933783 370.19663909 476.26933783 382.09663909 476.26933783 C382.09663909 475.27933783 382.09663909 474.28933783 382.09663909 473.26933783 C404.20663909 473.26933783 426.31663909 473.26933783 449.09663909 473.26933783 C449.09663909 470.95933783 449.09663909 468.64933783 449.09663909 466.26933783 C453.05663909 466.26933783 457.01663909 466.26933783 461.09663909 466.26933783 C461.09663909 519.72933783 461.09663909 573.18933783 461.09663909 628.26933783 C462.08663909 628.26933783 463.07663909 628.26933783 464.09663909 628.26933783 C464.09663909 630.57933783 464.09663909 632.88933783 464.09663909 635.26933783 C465.41663909 635.26933783 466.73663909 635.26933783 468.09663909 635.26933783 C468.09663909 636.58933783 468.09663909 637.90933783 468.09663909 639.26933783 C469.08663909 639.26933783 470.07663909 639.26933783 471.09663909 639.26933783 C471.09663909 640.25933783 471.09663909 641.24933783 471.09663909 642.26933783 C472.41663909 642.26933783 473.73663909 642.26933783 475.09663909 642.26933783 C475.09663909 643.58933783 475.09663909 644.90933783 475.09663909 646.26933783 C476.08663909 646.26933783 477.07663909 646.26933783 478.09663909 646.26933783 C478.09663909 647.25933783 478.09663909 648.24933783 478.09663909 649.26933783 C479.41663909 649.26933783 480.73663909 649.26933783 482.09663909 649.26933783 C482.09663909 650.58933783 482.09663909 651.90933783 482.09663909 653.26933783 C484.40663909 653.26933783 486.71663909 653.26933783 489.09663909 653.26933783 C489.09663909 654.25933783 489.09663909 655.24933783 489.09663909 656.26933783 C519.12663909 656.26933783 549.15663909 656.26933783 580.09663909 656.26933783 C580.09663909 655.27933783 580.09663909 654.28933783 580.09663909 653.26933783 C582.40663909 653.26933783 584.71663909 653.26933783 587.09663909 653.26933783 C587.09663909 651.94933783 587.09663909 650.62933783 587.09663909 649.26933783 C588.08663909 649.26933783 589.07663909 649.26933783 590.09663909 649.26933783 C590.09663909 648.27933783 590.09663909 647.28933783 590.09663909 646.26933783 C591.41663909 646.26933783 592.73663909 646.26933783 594.09663909 646.26933783 C594.09663909 644.94933783 594.09663909 643.62933783 594.09663909 642.26933783 C595.41663909 642.26933783 596.73663909 642.26933783 598.09663909 642.26933783 C598.09663909 641.27933783 598.09663909 640.28933783 598.09663909 639.26933783 C599.08663909 639.26933783 600.07663909 639.26933783 601.09663909 639.26933783 C601.09663909 636.95933783 601.09663909 634.64933783 601.09663909 632.26933783 C602.41663909 632.26933783 603.73663909 632.26933783 605.09663909 632.26933783 C605.09663909 479.80933783 605.09663909 327.34933783 605.09663909 170.26933783 C603.77663909 170.26933783 602.45663909 170.26933783 601.09663909 170.26933783 C601.09663909 167.95933783 601.09663909 165.64933783 601.09663909 163.26933783 C600.10663909 163.26933783 599.11663909 163.26933783 598.09663909 163.26933783 C598.09663909 161.94933783 598.09663909 160.62933783 598.09663909 159.26933783 C596.77663909 159.26933783 595.45663909 159.26933783 594.09663909 159.26933783 C594.09663909 158.27933783 594.09663909 157.28933783 594.09663909 156.26933783 C592.77663909 156.26933783 591.45663909 156.26933783 590.09663909 156.26933783 C590.09663909 154.94933783 590.09663909 153.62933783 590.09663909 152.26933783 C589.10663909 152.26933783 588.11663909 152.26933783 587.09663909 152.26933783 C587.09663909 151.27933783 587.09663909 150.28933783 587.09663909 149.26933783 C584.78663909 149.26933783 582.47663909 149.26933783 580.09663909 149.26933783 C580.09663909 147.94933783 580.09663909 146.62933783 580.09663909 145.26933783 C547.75663909 145.26933783 515.41663909 145.26933783 482.09663909 145.26933783 Z " fill="#000000" transform="translate(173.90336090978235,47.73066216893494)"/>
</svg>
